<svg width="1674" height="762" viewBox="0 0 1674 762" fill="none" xmlns="http://www.w3.org/2000/svg">
<g id="Frame 1">
<g id="arrows">
<path id="Vector" d="M1362.5 147C1400.33 147 1431 114.093 1431 73.5C1431 32.9071 1400.33 0 1362.5 0C1324.67 0 1294 32.9071 1294 73.5C1294 114.093 1324.67 147 1362.5 147Z" fill="#3F3D56"/>
<path id="Vector_2" d="M1392.18 92.4596C1389.77 89.9006 1383.98 86.0401 1381.11 84.5989C1377.8 82.9076 1376.58 82.9371 1374.24 84.7386C1372.29 86.2093 1371.02 87.6284 1368.78 87.1064C1366.54 86.5843 1362.1 83.0253 1357.81 78.4736C1353.51 73.9219 1350.18 69.2305 1349.7 66.8113C1349.23 64.3921 1350.54 63.0758 1351.94 61.0022C1353.63 58.5094 1353.67 57.2153 1352.07 53.693C1350.69 50.6414 1347.1 44.5014 1344.67 41.9278C1342.24 39.3541 1341.72 39.9203 1340.39 40.4571C1339.02 41.0662 1337.71 41.8045 1336.47 42.6631C1334.06 44.3764 1332.71 45.803 1331.77 47.9501C1330.82 50.0973 1329.75 54.0828 1335.26 64.5171C1339.32 72.4993 1344.47 79.8011 1350.54 86.1872V86.1872C1356.57 92.6537 1363.46 98.1394 1370.99 102.467C1380.79 108.35 1384.55 107.181 1386.57 106.181C1388.59 105.181 1389.93 103.762 1391.53 101.181C1392.34 99.8606 1393.04 98.465 1393.61 97.0112C1394.06 95.5994 1394.6 95.0259 1392.18 92.4596Z" fill="#F9A826"/>
<path id="Vector_3" opacity="0.1" d="M1362.03 9.18713e-06C1348.38 -0.00725902 1335.04 4.2982 1323.69 12.3717C1312.33 20.4452 1303.49 31.9239 1298.26 45.3558C1293.03 58.7876 1291.66 73.5691 1294.32 87.8301C1296.99 102.091 1303.56 115.191 1313.21 125.472C1322.86 135.754 1335.16 142.755 1348.55 145.589C1361.94 148.424 1375.81 146.966 1388.42 141.398C1401.03 135.83 1411.81 126.404 1419.39 114.311C1426.96 102.219 1431.01 88.0033 1431 73.4632C1430.99 53.9826 1423.72 35.3026 1410.79 21.5277C1397.86 7.75275 1380.32 0.00974709 1362.03 9.18713e-06V9.18713e-06ZM1362.03 137.166C1350.21 137.166 1338.64 133.43 1328.81 126.43C1318.98 119.43 1311.31 109.481 1306.78 97.8411C1302.26 86.201 1301.07 73.3926 1303.38 61.0355C1305.69 48.6785 1311.38 37.3278 1319.75 28.4188C1328.11 19.5099 1338.77 13.4428 1350.37 10.9848C1361.97 8.52686 1373.99 9.78839 1384.92 14.6099C1395.85 19.4314 1405.19 27.5963 1411.76 38.0721C1418.33 48.5479 1421.84 60.8641 1421.84 73.4632C1421.84 81.8288 1420.29 90.1124 1417.28 97.8411C1414.28 105.57 1409.87 112.592 1404.32 118.508C1398.77 124.423 1392.18 129.115 1384.92 132.317C1377.66 135.518 1369.89 137.166 1362.03 137.166Z" fill="black"/>
<path id="Vector_4" d="M1548 762C1584.45 762 1614 731.555 1614 694C1614 656.445 1584.45 626 1548 626C1511.55 626 1482 656.445 1482 694C1482 731.555 1511.55 762 1548 762Z" fill="#3F3D56"/>
<path id="Vector_5" d="M1585.37 673.145L1565.7 693.914C1565.67 693.949 1565.64 693.99 1565.62 694.036C1565.6 694.081 1565.59 694.131 1565.59 694.18C1565.59 694.23 1565.6 694.279 1565.62 694.325C1565.64 694.371 1565.67 694.412 1565.7 694.446L1579.5 709.677C1579.83 710.023 1580.06 710.461 1580.15 710.939C1580.24 711.416 1580.19 711.91 1580.01 712.36C1579.83 712.809 1579.53 713.194 1579.14 713.466C1578.75 713.737 1578.29 713.883 1577.82 713.886C1577.19 713.884 1576.59 713.625 1576.14 713.163L1562.41 697.986C1562.34 697.915 1562.25 697.875 1562.15 697.875C1562.05 697.875 1561.96 697.915 1561.89 697.986L1558.54 701.492C1557.17 702.946 1555.54 704.101 1553.73 704.889C1551.93 705.678 1549.99 706.083 1548.03 706.083C1546.03 706.073 1544.06 705.651 1542.22 704.84C1540.39 704.03 1538.72 702.848 1537.33 701.363L1534.12 697.952C1534.05 697.881 1533.95 697.84 1533.85 697.84C1533.76 697.84 1533.66 697.881 1533.59 697.952L1519.9 713.095C1519.68 713.324 1519.41 713.506 1519.13 713.63C1518.84 713.754 1518.53 713.817 1518.22 713.817C1517.91 713.817 1517.6 713.754 1517.31 713.63C1517.02 713.506 1516.76 713.324 1516.54 713.095C1516.32 712.866 1516.14 712.595 1516.02 712.296C1515.9 711.997 1515.84 711.676 1515.84 711.352C1515.84 711.028 1515.9 710.707 1516.02 710.408C1516.14 710.109 1516.32 709.837 1516.54 709.609L1530.29 694.412C1530.35 694.338 1530.38 694.244 1530.38 694.146C1530.38 694.049 1530.35 693.954 1530.29 693.88L1510.62 673.111C1510.57 673.058 1510.5 673.022 1510.43 673.007C1510.36 672.993 1510.29 673 1510.22 673.029C1510.16 673.057 1510.1 673.105 1510.06 673.167C1510.02 673.229 1510 673.302 1510 673.377V714.936C1510.01 716.543 1510.62 718.082 1511.72 719.218C1512.81 720.354 1514.29 720.995 1515.84 721H1580.16C1581.71 720.995 1583.19 720.354 1584.28 719.218C1585.38 718.082 1585.99 716.543 1586 714.936V673.411C1586 673.333 1585.98 673.257 1585.94 673.192C1585.9 673.127 1585.84 673.076 1585.77 673.047C1585.71 673.018 1585.63 673.011 1585.56 673.029C1585.48 673.047 1585.42 673.087 1585.37 673.145V673.145Z" fill="#F9A826"/>
<path id="Vector_6" d="M1547.97 700.999C1549.31 701.013 1550.64 700.746 1551.88 700.214C1553.12 699.682 1554.25 698.897 1555.19 697.903L1584 667.376C1582.98 666.494 1581.69 666.008 1580.36 666H1515.64C1514.31 666.005 1513.02 666.491 1512 667.376L1540.82 697.903C1541.75 698.891 1542.86 699.674 1544.09 700.205C1545.32 700.737 1546.64 701.007 1547.97 700.999V700.999Z" fill="#F9A826"/>
<path id="Vector_7" opacity="0.1" d="M1547.03 626C1533.98 625.993 1521.21 629.977 1510.35 637.446C1499.49 644.915 1491.03 655.535 1486.03 667.962C1481.03 680.389 1479.72 694.064 1482.27 707.258C1484.81 720.452 1491.1 732.571 1500.33 742.083C1509.56 751.595 1521.33 758.072 1534.13 760.695C1546.94 763.318 1560.21 761.968 1572.27 756.817C1584.33 751.666 1594.64 742.945 1601.89 731.758C1609.14 720.57 1613.01 707.418 1613 693.966C1612.99 675.943 1606.04 658.661 1593.67 645.917C1581.3 633.173 1564.53 626.009 1547.03 626ZM1547.03 752.902C1535.72 752.902 1524.66 749.445 1515.25 742.969C1505.85 736.493 1498.51 727.289 1494.19 716.52C1489.86 705.751 1488.72 693.901 1490.93 682.468C1493.14 671.036 1498.59 660.535 1506.58 652.292C1514.58 644.05 1524.78 638.437 1535.87 636.163C1546.97 633.889 1558.47 635.056 1568.92 639.517C1579.38 643.977 1588.31 651.531 1594.59 661.223C1600.88 670.915 1604.24 682.31 1604.24 693.966C1604.24 709.597 1598.21 724.587 1587.48 735.64C1576.75 746.692 1562.2 752.902 1547.03 752.902Z" fill="black"/>
<path id="Vector_8" d="M176.5 433C212.122 433 241 403.451 241 367C241 330.549 212.122 301 176.5 301C140.878 301 112 330.549 112 367C112 403.451 140.878 433 176.5 433Z" fill="#3F3D56"/>
<path id="Vector_9" d="M176.494 335L151 396.511L153.38 399L176.5 388.336L199.62 399L202 396.511L176.494 335Z" fill="#F9A826"/>
<path id="Vector_10" opacity="0.1" d="M176.532 301C163.774 300.993 151.3 304.859 140.689 312.107C130.078 319.355 121.806 329.661 116.919 341.72C112.032 353.779 110.75 367.051 113.235 379.856C115.721 392.661 121.861 404.424 130.88 413.657C139.899 422.891 151.392 429.18 163.905 431.729C176.417 434.279 189.388 432.974 201.176 427.979C212.963 422.985 223.039 414.525 230.128 403.671C237.216 392.817 241 380.055 241 367C241 349.501 234.209 332.719 222.12 320.343C210.031 307.966 193.633 301.009 176.532 301V301ZM176.532 424.169C165.474 424.169 154.665 420.814 145.471 414.527C136.278 408.24 129.112 399.304 124.882 388.85C120.652 378.395 119.547 366.892 121.707 355.795C123.866 344.698 129.194 334.506 137.015 326.507C144.836 318.509 154.8 313.063 165.646 310.86C176.492 308.656 187.733 309.794 197.947 314.129C208.162 318.463 216.89 325.8 223.029 335.211C229.168 344.622 232.441 355.685 232.434 367C232.433 382.17 226.542 396.718 216.059 407.444C205.575 418.17 191.357 424.196 176.532 424.196V424.169Z" fill="black"/>
<path id="Vector_11" d="M1451.5 163.231C1451.42 161.473 1450.91 159.764 1450.02 158.262C1449.14 156.759 1447.89 155.511 1446.41 154.632L1444.13 159.281L1444.2 153.651C1443.11 153.317 1441.97 153.176 1440.84 153.233C1438.83 153.33 1436.89 154.04 1435.26 155.273C1433.64 156.506 1432.41 158.207 1431.73 160.161C1431.04 162.115 1430.94 164.234 1431.42 166.25C1431.91 168.266 1432.96 170.088 1434.45 171.487C1435.94 172.885 1437.8 173.797 1439.8 174.106C1441.79 174.416 1443.83 174.109 1445.65 173.226C1447.48 172.342 1449.01 170.921 1450.05 169.141C1451.09 167.362 1451.59 165.305 1451.5 163.231V163.231Z" fill="#F9A826"/>
<path id="Vector_12" d="M1453.03 196.96C1451.45 197.043 1449.87 196.745 1448.42 196.092C1446.97 195.438 1445.69 194.445 1444.68 193.193C1443.67 191.941 1442.95 190.462 1442.59 188.876C1442.23 187.289 1442.23 185.637 1442.59 184.051C1442.96 182.465 1443.68 180.988 1444.69 179.738C1445.71 178.487 1446.99 177.497 1448.44 176.846C1449.89 176.195 1451.47 175.9 1453.05 175.986C1454.63 176.072 1456.17 176.535 1457.55 177.34L1455.74 182.458L1459.45 178.79C1460.44 179.714 1461.24 180.831 1461.81 182.075C1462.38 183.319 1462.7 184.667 1462.76 186.041C1462.81 187.012 1462.73 187.986 1462.51 188.933C1461.99 191.148 1460.78 193.13 1459.07 194.578C1457.36 196.026 1455.24 196.862 1453.03 196.96V196.96Z" fill="#F9A826"/>
<path id="Vector_13" opacity="0.1" d="M1450.13 166.029C1447.78 166.302 1445.49 167.052 1443.13 167.206C1440.77 167.359 1438.16 166.771 1436.68 164.877C1435.98 163.78 1435.36 162.64 1434.8 161.465C1434.15 160.432 1433.27 159.577 1432.23 158.974C1431.57 160.305 1431.19 161.767 1431.12 163.26C1431.05 164.753 1431.3 166.245 1431.83 167.634C1432.37 169.023 1433.19 170.279 1434.23 171.316C1435.28 172.354 1436.53 173.149 1437.89 173.65C1439.26 174.15 1440.72 174.344 1442.16 174.218C1443.61 174.092 1445.01 173.65 1446.28 172.92C1447.55 172.191 1448.65 171.191 1449.51 169.988C1450.37 168.785 1450.97 167.406 1451.28 165.943C1450.9 165.96 1450.51 165.986 1450.13 166.029Z" fill="black"/>
<path id="Vector_14" opacity="0.1" d="M1453.03 196.96C1451.27 197.043 1449.53 196.657 1447.96 195.839C1446.39 195.021 1445.05 193.799 1444.07 192.292C1443.1 190.785 1442.52 189.043 1442.39 187.237C1442.26 185.43 1442.58 183.619 1443.33 181.98C1444.14 182.539 1444.84 183.255 1445.39 184.087C1445.99 185.285 1446.67 186.445 1447.41 187.559C1448.99 189.487 1451.71 190.118 1454.17 189.999C1456.63 189.879 1459 189.146 1461.45 188.933C1461.79 188.933 1462.14 188.873 1462.48 188.864C1461.98 191.089 1460.78 193.083 1459.07 194.544C1457.37 196.005 1455.25 196.853 1453.03 196.96V196.96Z" fill="black"/>
<path id="Vector_15" d="M1483.38 713.907C1484.39 713.907 1485.2 713.067 1485.2 712.03C1485.2 710.994 1484.39 710.154 1483.38 710.154C1482.38 710.154 1481.57 710.994 1481.57 712.03C1481.57 713.067 1482.38 713.907 1483.38 713.907Z" fill="#E8E8F0"/>
<path id="Vector_16" opacity="0.1" d="M791.168 270.747L785.478 274.466L788.932 267.992C787.955 267.187 786.745 266.742 785.495 266.729H785.395C785.001 266.736 784.608 266.705 784.219 266.635L782.29 267.898L783.118 266.345C781.75 265.855 780.568 264.933 779.739 263.709L776.286 265.961L778.472 261.884C777.554 260.663 776.383 259.667 775.046 258.969C773.708 258.271 772.236 257.889 770.737 257.849C767.143 257.849 763.946 260.05 761.884 263.479C761.273 264.504 760.409 265.345 759.381 265.916C758.353 266.487 757.196 266.767 756.029 266.729H755.838C751.871 266.729 748.658 271.353 748.658 277.068C748.658 282.783 751.871 287.407 755.838 287.407C756.705 287.4 757.557 287.177 758.323 286.758C759.671 286.084 761.146 285.72 762.644 285.691C764.143 285.661 765.629 285.967 767.002 286.588C768.17 287.136 769.437 287.427 770.72 287.441C771.984 287.439 773.233 287.165 774.389 286.639C775.753 286.031 777.228 285.732 778.713 285.761C780.199 285.79 781.662 286.148 783.002 286.81C783.769 287.223 784.621 287.44 785.486 287.441C789.445 287.441 792.658 282.809 792.658 277.102C792.692 274.888 792.179 272.701 791.168 270.747V270.747Z" fill="#3F3D56"/>
</g>
<g id="stars">
<path id="Vector_17" opacity="0.1" d="M1122.81 278.638C1119.86 278.062 1116.8 278.407 1114.03 279.627C1112.37 280.389 1110.58 280.783 1108.76 280.783C1106.94 280.783 1105.14 280.389 1103.48 279.627C1101.52 278.739 1099.39 278.301 1097.25 278.344C1095.1 278.386 1092.99 278.909 1091.06 279.874C1089.96 280.476 1088.74 280.792 1087.49 280.796C1082.46 280.796 1078.27 275.575 1077.41 268.691C1078.4 267.93 1079.24 266.984 1079.89 265.902C1082.84 261.005 1087.4 257.858 1092.54 257.858C1097.67 257.858 1102.18 260.963 1105.12 265.808C1106 267.272 1107.23 268.477 1108.7 269.305C1110.16 270.133 1111.81 270.556 1113.48 270.534H1113.61C1117.66 270.491 1121.13 273.801 1122.81 278.638Z" fill="#F9A826"/>
<path id="Vector_18" opacity="0.1" d="M1138.14 257.013L1130.01 262.319L1134.98 253.072C1133.58 251.925 1131.85 251.291 1130.06 251.272H1129.93C1129.37 251.28 1128.82 251.237 1128.27 251.144L1125.47 252.944L1126.66 250.726C1124.7 250.029 1123.01 248.708 1121.83 246.956L1116.86 250.18L1119.97 244.346C1117.09 240.78 1113.2 238.596 1108.92 238.596C1103.79 238.596 1099.23 241.735 1096.27 246.632C1095.4 248.096 1094.17 249.296 1092.7 250.111C1091.23 250.926 1089.58 251.327 1087.91 251.272H1087.64C1081.98 251.272 1077.39 257.883 1077.39 266.038C1077.39 274.193 1081.98 280.813 1087.64 280.813C1088.89 280.804 1090.11 280.488 1091.21 279.891C1093.14 278.923 1095.25 278.399 1097.39 278.355C1099.54 278.311 1101.67 278.748 1103.63 279.636C1105.29 280.403 1107.09 280.8 1108.91 280.8C1110.73 280.8 1112.52 280.403 1114.18 279.636C1116.13 278.768 1118.24 278.34 1120.36 278.383C1122.49 278.426 1124.58 278.937 1126.49 279.883C1127.58 280.47 1128.79 280.78 1130.02 280.787C1135.68 280.787 1140.27 274.168 1140.27 266.013C1140.31 262.876 1139.57 259.782 1138.14 257.013V257.013Z" fill="#3F3D56"/>
<path id="Vector_19" opacity="0.1" d="M159.202 235.508C161.271 235.106 163.41 235.346 165.347 236.199C166.509 236.734 167.768 237.01 169.04 237.01C170.313 237.01 171.572 236.734 172.734 236.199C174.108 235.579 175.596 235.272 177.096 235.302C178.596 235.331 180.072 235.696 181.421 236.37C182.187 236.79 183.039 237.012 183.906 237.018C187.426 237.018 190.357 233.359 190.962 228.539C190.26 228.01 189.664 227.347 189.206 226.585C187.136 223.173 183.939 220.964 180.353 220.964C176.767 220.964 173.604 223.131 171.533 226.526C170.918 227.55 170.057 228.392 169.032 228.972C168.008 229.552 166.855 229.85 165.686 229.836H165.595C162.804 229.853 160.37 232.164 159.202 235.508Z" fill="#F9A826"/>
<path id="Vector_20" opacity="0.5" d="M148.469 220.409L154.167 224.129L150.705 217.663C151.684 216.855 152.896 216.408 154.15 216.392H154.241C154.638 216.398 155.034 216.369 155.425 216.306L157.355 217.56L156.527 216.016C157.892 215.525 159.071 214.603 159.898 213.381L163.351 215.633L161.198 211.547C162.116 210.326 163.287 209.332 164.625 208.636C165.963 207.939 167.434 207.558 168.933 207.52C172.519 207.52 175.724 209.721 177.786 213.15C178.396 214.174 179.258 215.014 180.285 215.585C181.312 216.155 182.467 216.437 183.633 216.4H183.831C187.79 216.4 191.003 221.032 191.003 226.739C191.003 232.446 187.79 237.078 183.831 237.078C182.965 237.074 182.113 236.854 181.347 236.438C179.998 235.76 178.523 235.393 177.022 235.362C175.522 235.331 174.033 235.637 172.659 236.259C171.496 236.812 170.231 237.103 168.949 237.112C167.683 237.111 166.431 236.838 165.272 236.31C163.91 235.702 162.437 235.403 160.952 235.432C159.468 235.462 158.006 235.819 156.668 236.481C155.901 236.894 155.049 237.111 154.183 237.112C150.216 237.112 147.003 232.488 147.003 226.773C146.964 224.559 147.469 222.37 148.469 220.409V220.409Z" fill="#E5E5E5"/>
<path id="Vector_21" d="M791.397 92.9931C791.317 91.2335 790.809 89.523 789.918 88.0189C789.028 86.5148 787.785 85.2655 786.304 84.386L784.018 89.035L784.092 83.405C782.02 82.7763 779.806 82.8424 777.772 83.5937C775.738 84.3449 773.988 85.7425 772.776 87.5846C771.563 89.4268 770.95 91.6183 771.025 93.8428C771.1 96.0673 771.859 98.2096 773.193 99.9607C774.527 101.712 776.367 102.981 778.446 103.585C780.526 104.189 782.739 104.097 784.764 103.321C786.79 102.546 788.524 101.128 789.716 99.2715C790.908 97.4151 791.497 95.2165 791.397 92.9931V92.9931Z" fill="#F9A826"/>
<path id="Vector_22" d="M1669.34 741.878C1668.31 743.931 1666.66 745.579 1664.63 746.566C1662.61 747.553 1660.32 747.825 1658.13 747.34C1655.94 746.854 1653.96 745.638 1652.51 743.88C1651.06 742.121 1650.21 739.919 1650.09 737.613C1650.02 736.159 1650.24 734.704 1650.75 733.347C1651.51 731.368 1652.82 729.67 1654.53 728.477C1656.23 727.284 1658.25 726.651 1660.32 726.663C1662.38 726.675 1664.39 727.331 1666.08 728.544C1667.78 729.757 1669.07 731.471 1669.8 733.458L1663.43 738.798L1670.44 737.092C1670.45 738.755 1670.07 740.396 1669.34 741.878V741.878Z" fill="#F9A826"/>
<path id="Vector_23" d="M1664.3 721.49C1661.8 721.612 1659.34 720.78 1657.4 719.154C1655.45 717.529 1654.16 715.222 1653.76 712.675C1653.36 710.128 1653.89 707.519 1655.23 705.345C1656.58 703.172 1658.66 701.586 1661.07 700.89L1661.02 705.214L1663.33 700.506C1666.03 700.376 1668.67 701.356 1670.67 703.232C1672.67 705.108 1673.86 707.725 1673.99 710.508C1674.12 713.29 1673.16 716.011 1671.34 718.07C1669.52 720.13 1666.98 721.36 1664.28 721.49H1664.3Z" fill="#F9A826"/>
<path id="Vector_24" d="M1657.11 454.562C1655.53 454.646 1653.95 454.35 1652.5 453.697C1651.05 453.044 1649.76 452.052 1648.75 450.8C1647.74 449.548 1647.02 448.07 1646.66 446.483C1646.29 444.896 1646.29 443.244 1646.66 441.658C1647.02 440.071 1647.74 438.594 1648.76 437.343C1649.77 436.091 1651.05 435.101 1652.5 434.449C1653.96 433.798 1655.53 433.503 1657.11 433.588C1658.7 433.674 1660.23 434.137 1661.61 434.942L1659.81 440.06L1663.48 436.324C1664.97 437.725 1666.01 439.547 1666.49 441.561C1666.97 443.575 1666.86 445.69 1666.18 447.64C1665.49 449.589 1664.26 451.286 1662.64 452.517C1661.02 453.747 1659.08 454.455 1657.07 454.553L1657.11 454.562Z" fill="#F9A826"/>
<path id="Vector_25" opacity="0.1" d="M1657.11 454.562C1655.35 454.647 1653.6 454.263 1652.03 453.446C1650.46 452.629 1649.12 451.406 1648.14 449.898C1647.17 448.39 1646.59 446.648 1646.46 444.84C1646.33 443.032 1646.66 441.221 1647.41 439.582C1648.22 440.145 1648.91 440.863 1649.45 441.698C1650.06 442.894 1650.74 444.053 1651.47 445.17C1653.06 447.089 1655.78 447.729 1658.24 447.601C1660.7 447.473 1663.08 446.748 1665.53 446.534C1665.87 446.534 1666.21 446.483 1666.56 446.475C1666.05 448.698 1664.85 450.69 1663.15 452.149C1661.44 453.608 1659.32 454.455 1657.11 454.562V454.562Z" fill="black"/>
<path id="Vector_26" opacity="0.1" d="M1664.3 721.49C1662.56 721.574 1660.83 721.198 1659.27 720.397C1657.72 719.596 1656.38 718.397 1655.4 716.915C1654.42 715.432 1653.83 713.716 1653.67 711.929C1653.52 710.142 1653.81 708.344 1654.52 706.707C1655.36 707.277 1656.1 708 1656.68 708.84C1657.35 710.064 1658.09 711.246 1658.9 712.38C1660.61 714.35 1663.51 715.05 1666.11 714.939C1668.71 714.828 1671.08 714.248 1673.56 714.086C1672.94 716.15 1671.72 717.968 1670.07 719.293C1668.41 720.618 1666.4 721.385 1664.3 721.49Z" fill="black"/>
<path id="Vector_27" opacity="0.1" d="M1669.34 741.878C1668.31 743.931 1666.66 745.579 1664.63 746.566C1662.61 747.553 1660.32 747.825 1658.13 747.34C1655.94 746.854 1653.96 745.638 1652.51 743.879C1651.06 742.121 1650.21 739.919 1650.09 737.613C1650.02 736.158 1650.24 734.704 1650.75 733.347C1651.59 733.915 1652.35 734.608 1652.99 735.403C1653.96 736.615 1654.6 737.962 1655.72 739.131C1657.8 741.238 1661.17 742.108 1664.16 742.185C1665.89 742.19 1667.62 742.088 1669.34 741.878V741.878Z" fill="black"/>
<path id="Vector_28" d="M407.146 272.13C407.066 270.37 406.557 268.66 405.667 267.156C404.777 265.652 403.534 264.402 402.052 263.523L399.767 268.172L399.841 262.542C397.768 261.913 395.555 261.979 393.521 262.73C391.487 263.482 389.737 264.879 388.524 266.722C387.311 268.564 386.698 270.755 386.773 272.98C386.848 275.204 387.608 277.346 388.942 279.098C390.276 280.849 392.115 282.118 394.195 282.722C396.275 283.326 398.487 283.234 400.513 282.458C402.538 281.683 404.273 280.265 405.465 278.408C406.657 276.552 407.246 274.353 407.146 272.13Z" fill="#F9A826"/>
<path id="Vector_29" d="M219.676 197.144C218.651 199.197 216.997 200.845 214.97 201.832C212.944 202.82 210.658 203.091 208.467 202.606C206.275 202.12 204.3 200.904 202.847 199.146C201.394 197.387 200.545 195.185 200.43 192.879C200.353 191.425 200.579 189.971 201.092 188.614C201.843 186.634 203.159 184.936 204.865 183.743C206.572 182.55 208.59 181.917 210.653 181.929C212.716 181.941 214.727 182.597 216.42 183.81C218.114 185.023 219.411 186.737 220.14 188.724L213.771 194.064L220.778 192.358C220.786 194.021 220.408 195.662 219.676 197.144V197.144Z" fill="#F9A826"/>
<path id="Vector_30" d="M231.794 666.122C229.292 666.243 226.834 665.412 224.889 663.786C222.944 662.16 221.649 659.854 221.25 657.307C220.85 654.76 221.375 652.151 222.724 649.977C224.073 647.803 226.152 646.217 228.564 645.521L228.506 649.846L230.816 645.137C232.154 645.073 233.491 645.281 234.751 645.748C236.011 646.216 237.169 646.935 238.159 647.864C239.149 648.792 239.952 649.913 240.521 651.161C241.091 652.41 241.416 653.761 241.479 655.139C241.541 656.517 241.34 657.894 240.886 659.192C240.432 660.489 239.734 661.682 238.832 662.702C237.93 663.722 236.843 664.549 235.631 665.136C234.419 665.722 233.106 666.058 231.769 666.122H231.794Z" fill="#F9A826"/>
<path id="Vector_31" d="M10.7208 378.289C9.14014 378.373 7.56219 378.077 6.11191 377.424C4.66163 376.771 3.37886 375.779 2.36518 374.527C1.35151 373.275 0.634779 371.797 0.271765 370.21C-0.0912482 368.624 -0.0905792 366.971 0.273724 365.385C0.638027 363.798 1.35596 362.321 2.37065 361.07C3.38534 359.819 4.66892 358.828 6.11973 358.176C7.57055 357.525 9.14873 357.23 10.7293 357.316C12.3099 357.401 13.8494 357.864 15.226 358.669L13.4289 363.787L17.0976 360.051C18.5815 361.452 19.6293 363.275 20.1091 365.289C20.5889 367.302 20.479 369.417 19.7935 371.367C19.108 373.317 17.8774 375.014 16.2569 376.244C14.6364 377.474 12.6985 378.183 10.6877 378.28L10.7208 378.289Z" fill="#F9A826"/>
<path id="Vector_32" opacity="0.1" d="M405.771 274.928C403.419 275.192 401.133 275.943 398.765 276.097C396.396 276.25 393.796 275.661 392.322 273.776C391.628 272.678 390.998 271.538 390.433 270.364C389.79 269.329 388.908 268.473 387.866 267.873C387.207 269.204 386.83 270.665 386.763 272.157C386.695 273.65 386.937 275.14 387.473 276.528C388.009 277.917 388.827 279.171 389.871 280.208C390.916 281.245 392.163 282.041 393.53 282.541C394.897 283.042 396.352 283.237 397.797 283.112C399.243 282.987 400.646 282.546 401.913 281.818C403.18 281.09 404.281 280.092 405.143 278.891C406.006 277.689 406.609 276.312 406.914 274.851C406.541 274.86 406.152 274.885 405.771 274.928Z" fill="black"/>
<path id="Vector_33" opacity="0.1" d="M10.7207 378.289C8.96295 378.375 7.21353 377.99 5.64272 377.173C4.07192 376.356 2.73323 375.134 1.75689 373.626C0.780551 372.118 0.199819 370.375 0.0712099 368.567C-0.0573993 366.759 0.270491 364.948 1.02297 363.31C1.83117 363.872 2.52584 364.59 3.06853 365.425C3.67761 366.621 4.35227 367.78 5.08925 368.897C6.67932 370.816 9.39569 371.456 11.8553 371.328C14.315 371.2 16.6918 370.475 19.1432 370.262C19.4827 370.262 19.8222 370.211 20.1701 370.202C19.6628 372.425 18.466 374.417 16.7608 375.876C15.0557 377.335 12.9352 378.182 10.7207 378.289Z" fill="black"/>
<path id="Vector_34" opacity="0.1" d="M231.793 666.122C230.054 666.206 228.322 665.829 226.764 665.028C225.206 664.227 223.873 663.029 222.892 661.546C221.911 660.064 221.315 658.347 221.162 656.56C221.008 654.774 221.301 652.976 222.013 651.339C222.853 651.909 223.586 652.631 224.174 653.471C224.842 654.696 225.581 655.878 226.386 657.012C228.1 658.982 230.998 659.682 233.599 659.571C236.199 659.46 238.568 658.88 241.052 658.718C240.434 660.782 239.214 662.6 237.557 663.925C235.901 665.249 233.888 666.017 231.793 666.122Z" fill="black"/>
<path id="Vector_35" opacity="0.1" d="M219.676 197.144C218.651 199.197 216.997 200.845 214.97 201.832C212.944 202.82 210.658 203.091 208.467 202.606C206.275 202.12 204.3 200.904 202.847 199.146C201.394 197.387 200.545 195.185 200.43 192.879C200.353 191.425 200.579 189.971 201.092 188.614C201.932 189.181 202.685 189.874 203.328 190.669C204.297 191.881 204.935 193.229 206.061 194.397C208.14 196.504 211.51 197.374 214.5 197.451C216.23 197.456 217.958 197.354 219.676 197.144V197.144Z" fill="black"/>
<path id="Vector_36" d="M1020.31 464.915C1020.38 463.156 1020.89 461.446 1021.78 459.942C1022.67 458.438 1023.91 457.188 1025.39 456.308L1027.68 460.957L1027.61 455.327C1028.7 455.001 1029.83 454.86 1030.96 454.909C1032.98 455.006 1034.92 455.715 1036.54 456.948C1038.16 458.181 1039.4 459.881 1040.08 461.835C1040.76 463.788 1040.87 465.907 1040.39 467.922C1039.9 469.938 1038.85 471.761 1037.36 473.16C1035.87 474.558 1034.01 475.471 1032.01 475.781C1030.02 476.092 1027.98 475.787 1026.16 474.904C1024.33 474.022 1022.8 472.602 1021.76 470.824C1020.72 469.046 1020.21 466.99 1020.31 464.915V464.915Z" fill="#F9A826"/>
<path id="Vector_37" d="M1480.39 610.204C1481.46 612.347 1483.21 614.046 1485.35 615.017C1487.5 615.987 1489.9 616.17 1492.15 615.535C1494.41 614.899 1496.38 613.484 1497.75 611.526C1499.11 609.568 1499.78 607.187 1499.64 604.782C1499.5 602.377 1498.56 600.094 1496.98 598.317C1495.4 596.539 1493.28 595.375 1490.97 595.02C1488.65 594.664 1486.29 595.139 1484.28 596.365C1482.26 597.59 1480.72 599.492 1479.91 601.75L1486.27 607.09L1479.27 605.384C1479.26 607.06 1479.65 608.714 1480.39 610.204V610.204Z" fill="#F9A826"/>
<path id="Vector_38" d="M1157.48 112.419C1159.98 112.543 1162.44 111.713 1164.39 110.088C1166.33 108.463 1167.63 106.156 1168.03 103.609C1168.43 101.061 1167.91 98.4504 1166.56 96.2756C1165.21 94.1009 1163.13 92.5141 1160.71 91.8183L1160.76 96.1432L1158.45 91.4345C1155.75 91.2976 1153.11 92.2713 1151.11 94.1414C1149.1 96.0115 1147.9 98.6248 1147.77 101.406C1147.71 102.618 1147.86 103.831 1148.21 104.989C1148.82 107.061 1150.04 108.888 1151.7 110.218C1153.36 111.548 1155.38 112.317 1157.48 112.419V112.419Z" fill="#F9A826"/>
<path id="Vector_39" d="M1132.73 95.4352C1134.31 95.5181 1135.89 95.2209 1137.34 94.5671C1138.79 93.9134 1140.07 92.921 1141.08 91.6686C1142.1 90.4161 1142.81 88.938 1143.17 87.3513C1143.54 85.7646 1143.53 84.1128 1143.17 82.5268C1142.81 80.9407 1142.09 79.4639 1141.07 78.2133C1140.06 76.9627 1138.77 75.9726 1137.32 75.3215C1135.87 74.6703 1134.29 74.3759 1132.71 74.4617C1131.13 74.5474 1129.59 75.0109 1128.22 75.8154L1130.02 80.9336L1126.31 77.2741C1125.32 78.1976 1124.52 79.3137 1123.95 80.5582C1123.38 81.8027 1123.06 83.1509 1123 84.5249C1122.95 85.4965 1123.04 86.4704 1123.26 87.4167C1123.78 89.6317 1124.98 91.6122 1126.69 93.0588C1128.4 94.5055 1130.52 95.3396 1132.73 95.4352Z" fill="#F9A826"/>
<path id="Vector_40" opacity="0.1" d="M1021.68 467.713C1024.03 467.978 1026.32 468.728 1028.68 468.882C1031.04 469.035 1033.65 468.447 1035.13 466.562C1035.82 465.463 1036.45 464.324 1037.01 463.149C1037.66 462.114 1038.54 461.258 1039.59 460.659C1040.25 461.99 1040.62 463.451 1040.69 464.944C1040.76 466.438 1040.52 467.929 1039.98 469.319C1039.45 470.708 1038.63 471.963 1037.58 473.001C1036.54 474.038 1035.29 474.834 1033.92 475.334C1032.55 475.835 1031.1 476.028 1029.65 475.903C1028.2 475.777 1026.8 475.334 1025.53 474.605C1024.27 473.875 1023.17 472.875 1022.3 471.672C1021.44 470.469 1020.84 469.09 1020.54 467.628C1020.91 467.636 1021.29 467.67 1021.68 467.713Z" fill="black"/>
<path id="Vector_41" opacity="0.1" d="M1132.73 95.4352C1134.49 95.5184 1136.24 95.1324 1137.81 94.3146C1139.38 93.4967 1140.71 92.2749 1141.69 90.7676C1142.66 89.2603 1143.25 87.5188 1143.38 85.712C1143.51 83.9053 1143.18 82.0947 1142.43 80.4559C1141.62 81.0181 1140.92 81.7365 1140.38 82.5715C1139.77 83.7673 1139.09 84.9264 1138.35 86.0433C1136.77 87.9626 1134.06 88.6024 1131.6 88.4744C1129.14 88.3465 1126.76 87.6214 1124.31 87.4081C1123.97 87.4081 1123.62 87.357 1123.28 87.3484C1123.79 89.572 1124.98 91.5648 1126.69 93.0242C1128.4 94.4837 1130.52 95.3302 1132.73 95.4352V95.4352Z" fill="black"/>
<path id="Vector_42" opacity="0.1" d="M1157.48 112.419C1159.22 112.505 1160.95 112.13 1162.51 111.33C1164.07 110.53 1165.4 109.331 1166.38 107.848C1167.37 106.364 1167.96 104.647 1168.11 102.859C1168.27 101.071 1167.97 99.2729 1167.26 97.636C1166.42 98.204 1165.69 98.927 1165.1 99.7686C1164.44 100.993 1163.7 102.175 1162.89 103.309C1161.17 105.279 1158.28 105.979 1155.67 105.868C1153.06 105.757 1150.7 105.177 1148.22 105.015C1148.83 107.081 1150.05 108.901 1151.71 110.226C1153.37 111.551 1155.38 112.317 1157.48 112.419V112.419Z" fill="black"/>
<path id="Vector_43" opacity="0.1" d="M1480.39 610.204C1481.59 612.58 1483.62 614.396 1486.08 615.28C1488.53 616.164 1491.22 616.05 1493.59 614.961C1495.97 613.871 1497.85 611.889 1498.85 609.42C1499.85 606.95 1499.9 604.179 1498.99 601.673C1498.14 602.236 1497.39 602.93 1496.75 603.729C1495.78 604.94 1495.09 606.288 1494.02 607.457C1491.93 609.564 1488.57 610.434 1485.57 610.511C1483.84 610.512 1482.11 610.409 1480.39 610.204V610.204Z" fill="black"/>
</g>
</g>
</svg>
