<svg width="1928" height="743" viewBox="0 0 1928 743" fill="none" xmlns="http://www.w3.org/2000/svg">
<g id="Frame 1">
<g id="arrows">
<path id="Vector" d="M1521 171C1558 171 1588 139.884 1588 101.5C1588 63.1162 1558 32 1521 32C1484 32 1454 63.1162 1454 101.5C1454 139.884 1484 171 1521 171Z" fill="#3F3D56"/>
<path id="Vector_2" d="M1549.23 119.328C1546.9 116.921 1541.3 113.291 1538.52 111.936C1535.31 110.346 1534.14 110.374 1531.87 112.068C1529.98 113.451 1528.75 114.785 1526.58 114.294C1524.41 113.803 1520.12 110.457 1515.96 106.177C1511.8 101.897 1508.57 97.4854 1508.11 95.2106C1507.65 92.9358 1508.92 91.6982 1510.27 89.7483C1511.91 87.4044 1511.95 86.1875 1510.4 82.8755C1509.06 80.0061 1505.59 74.2327 1503.24 71.8127C1500.89 69.3927 1500.38 69.9251 1499.09 70.4298C1497.77 71.0026 1496.5 71.6968 1495.3 72.5041C1492.97 74.1151 1491.66 75.4565 1490.74 77.4755C1489.83 79.4945 1488.79 83.242 1494.12 93.0534C1498.06 100.559 1503.05 107.425 1508.92 113.43V113.43C1514.76 119.51 1521.43 124.668 1528.72 128.738C1538.21 134.269 1541.85 133.17 1543.8 132.23C1545.76 131.289 1547.06 129.955 1548.61 127.528C1549.39 126.287 1550.07 124.975 1550.62 123.608C1551.06 122.28 1551.58 121.741 1549.23 119.328Z" fill="#F9A826"/>
<path id="Vector_3" opacity="0.1" d="M1520.53 32C1507.18 31.9931 1494.13 36.0643 1483.02 43.6984C1471.91 51.3325 1463.26 62.1866 1458.14 74.8874C1453.03 87.5883 1451.69 101.565 1454.3 115.05C1456.9 128.535 1463.33 140.922 1472.77 150.644C1482.21 160.366 1494.24 166.986 1507.34 169.666C1520.44 172.347 1534.01 170.968 1546.35 165.703C1558.68 160.438 1569.22 151.525 1576.64 140.09C1584.05 128.656 1588.01 115.214 1588 101.465C1587.99 83.0448 1580.88 65.3814 1568.23 52.3561C1555.58 39.3308 1538.42 32.0092 1520.53 32V32ZM1520.53 161.701C1508.96 161.701 1497.65 158.168 1488.03 151.549C1478.41 144.931 1470.91 135.523 1466.48 124.516C1462.06 113.51 1460.9 101.398 1463.16 89.7139C1465.41 78.0293 1470.98 67.2963 1479.17 58.8722C1487.35 50.4481 1497.77 44.7112 1509.12 42.387C1520.47 40.0628 1532.23 41.2557 1542.92 45.8148C1553.61 50.3739 1562.75 58.0944 1569.18 68.0001C1575.6 77.9058 1579.04 89.5518 1579.04 101.465C1579.04 109.376 1577.52 117.208 1574.58 124.516C1571.64 131.825 1567.33 138.465 1561.9 144.058C1556.47 149.652 1550.02 154.089 1542.92 157.116C1535.82 160.143 1528.22 161.701 1520.53 161.701Z" fill="black"/>
<path id="Vector_4" d="M1611.5 144.231C1611.42 142.473 1610.91 140.764 1610.02 139.262C1609.14 137.759 1607.89 136.511 1606.41 135.632L1604.13 140.281L1604.2 134.651C1603.11 134.317 1601.97 134.176 1600.84 134.233C1598.83 134.33 1596.89 135.04 1595.26 136.273C1593.64 137.506 1592.41 139.207 1591.73 141.161C1591.04 143.115 1590.94 145.234 1591.42 147.25C1591.91 149.266 1592.96 151.088 1594.45 152.487C1595.94 153.885 1597.8 154.797 1599.8 155.106C1601.79 155.416 1603.83 155.109 1605.65 154.226C1607.48 153.342 1609.01 151.921 1610.05 150.141C1611.09 148.362 1611.59 146.305 1611.5 144.231V144.231Z" fill="#F9A826"/>
<path id="Vector_5" d="M1613.03 177.96C1611.45 178.043 1609.87 177.745 1608.42 177.092C1606.97 176.438 1605.69 175.445 1604.68 174.193C1603.67 172.941 1602.95 171.462 1602.59 169.876C1602.23 168.289 1602.23 166.637 1602.59 165.051C1602.96 163.465 1603.68 161.988 1604.69 160.738C1605.71 159.487 1606.99 158.497 1608.44 157.846C1609.89 157.195 1611.47 156.9 1613.05 156.986C1614.63 157.072 1616.17 157.535 1617.55 158.34L1615.74 163.458L1619.45 159.79C1620.44 160.714 1621.24 161.831 1621.81 163.075C1622.38 164.319 1622.7 165.667 1622.76 167.041C1622.81 168.012 1622.73 168.986 1622.51 169.933C1621.99 172.148 1620.78 174.13 1619.07 175.578C1617.36 177.026 1615.24 177.862 1613.03 177.96V177.96Z" fill="#F9A826"/>
<path id="Vector_6" d="M1844.9 667.538C1890.62 667.538 1927.68 629.362 1927.68 582.269C1927.68 535.176 1890.62 497 1844.9 497C1799.18 497 1762.12 535.176 1762.12 582.269C1762.12 629.362 1799.18 667.538 1844.9 667.538Z" fill="#3F3D56"/>
<path id="Vector_7" d="M1891.98 556.508L1867.2 582.482C1867.15 582.525 1867.12 582.577 1867.09 582.634C1867.07 582.691 1867.06 582.753 1867.06 582.815C1867.06 582.877 1867.07 582.939 1867.09 582.996C1867.12 583.053 1867.15 583.105 1867.2 583.148L1884.59 602.196C1885 602.628 1885.29 603.177 1885.4 603.773C1885.51 604.37 1885.45 604.989 1885.23 605.551C1885 606.113 1884.62 606.594 1884.13 606.934C1883.64 607.273 1883.07 607.456 1882.47 607.459C1881.68 607.457 1880.92 607.133 1880.35 606.555L1863.05 587.575C1862.97 587.485 1862.85 587.435 1862.72 587.435C1862.6 587.435 1862.48 587.485 1862.39 587.575L1858.18 591.96C1856.45 593.778 1854.39 595.222 1852.11 596.208C1849.84 597.194 1847.39 597.701 1844.93 597.701C1842.41 597.688 1839.92 597.16 1837.61 596.147C1835.29 595.133 1833.2 593.655 1831.44 591.798L1827.39 587.532C1827.31 587.443 1827.19 587.393 1827.06 587.393C1826.94 587.393 1826.82 587.443 1826.73 587.532L1809.47 606.47C1809.19 606.756 1808.86 606.984 1808.5 607.139C1808.14 607.294 1807.75 607.374 1807.36 607.374C1806.96 607.374 1806.57 607.294 1806.21 607.139C1805.85 606.984 1805.52 606.756 1805.24 606.47C1804.96 606.184 1804.74 605.845 1804.59 605.471C1804.44 605.097 1804.36 604.695 1804.36 604.29C1804.36 603.885 1804.44 603.484 1804.59 603.11C1804.74 602.736 1804.96 602.396 1805.24 602.111L1822.57 583.105C1822.64 583.012 1822.68 582.894 1822.68 582.772C1822.68 582.65 1822.64 582.533 1822.57 582.44L1797.78 556.465C1797.71 556.399 1797.63 556.354 1797.54 556.336C1797.46 556.317 1797.36 556.327 1797.28 556.362C1797.2 556.398 1797.13 556.458 1797.08 556.536C1797.03 556.613 1797 556.705 1797 556.798V608.773C1797.01 610.782 1797.78 612.707 1799.16 614.128C1800.54 615.548 1802.41 616.35 1804.36 616.356H1885.41C1887.37 616.35 1889.23 615.548 1890.61 614.128C1891.99 612.707 1892.77 610.782 1892.78 608.773V556.84C1892.78 556.744 1892.76 556.648 1892.71 556.566C1892.65 556.485 1892.58 556.422 1892.49 556.385C1892.41 556.349 1892.31 556.341 1892.22 556.363C1892.13 556.385 1892.04 556.435 1891.98 556.508V556.508Z" fill="#F9A826"/>
<path id="Vector_8" d="M1844.9 591.533C1846.58 591.55 1848.25 591.219 1849.8 590.56C1851.35 589.9 1852.76 588.926 1853.94 587.694L1890.04 549.845C1888.76 548.752 1887.15 548.149 1885.49 548.139H1804.38C1802.71 548.145 1801.1 548.748 1799.82 549.845L1835.93 587.694C1837.1 588.919 1838.5 589.889 1840.04 590.549C1841.58 591.208 1843.23 591.543 1844.9 591.533V591.533Z" fill="#F9A826"/>
<path id="Vector_9" opacity="0.1" d="M1843.86 497.009C1827.47 497 1811.46 501.997 1797.83 511.367C1784.21 520.737 1773.59 534.059 1767.31 549.648C1761.04 565.237 1759.4 582.392 1762.59 598.943C1765.78 615.494 1773.67 630.698 1785.26 642.63C1796.84 654.563 1811.6 662.688 1827.67 665.978C1843.74 669.268 1860.39 667.575 1875.53 661.114C1890.66 654.652 1903.6 643.712 1912.69 629.677C1921.79 615.643 1926.64 599.144 1926.63 582.269C1926.62 559.66 1917.9 537.98 1902.38 521.993C1886.86 506.006 1865.81 497.02 1843.86 497.009ZM1843.86 656.201C1829.66 656.201 1815.78 651.865 1803.98 643.742C1792.18 635.618 1782.98 624.071 1777.54 610.562C1772.11 597.052 1770.69 582.187 1773.46 567.846C1776.23 553.504 1783.07 540.331 1793.1 529.991C1803.14 519.651 1815.93 512.61 1829.85 509.757C1843.78 506.905 1858.21 508.369 1871.33 513.965C1884.44 519.56 1895.65 529.036 1903.54 541.195C1911.42 553.353 1915.63 567.647 1915.63 582.269C1915.63 601.877 1908.07 620.682 1894.61 634.547C1881.15 648.412 1862.89 656.201 1843.86 656.201Z" fill="black"/>
<path id="Vector_10" d="M82.8576 541.564C128.577 541.564 165.641 503.388 165.641 456.295C165.641 409.202 128.577 371.026 82.8576 371.026C37.1378 371.026 0.074585 409.202 0.074585 456.295C0.074585 503.388 37.1378 541.564 82.8576 541.564Z" fill="#3F3D56"/>
<path id="Vector_11" d="M82.8576 415.494L49.8553 493.922L52.9361 497.095L82.8659 483.498L112.796 497.095L115.876 493.922L82.8576 415.494Z" fill="#F9A826"/>
<path id="Vector_12" opacity="0.1" d="M82.8576 371C66.4764 370.992 50.4606 375.987 36.8361 385.355C23.2116 394.724 12.5904 408.043 6.31592 423.63C0.0414074 439.216 -1.60452 456.369 1.58629 472.919C4.77709 489.469 12.6613 504.673 24.2417 516.607C35.8221 528.541 50.5784 536.669 66.6443 539.964C82.7102 543.259 99.3639 541.572 114.499 535.117C129.634 528.662 142.571 517.729 151.672 503.7C160.774 489.671 165.632 473.176 165.632 456.303C165.632 433.687 156.913 411.996 141.391 396C125.869 380.004 104.815 371.011 82.8576 371V371ZM82.8576 530.193C68.6597 530.193 54.7808 525.856 42.9763 517.73C31.1717 509.604 21.972 498.055 16.5406 484.543C11.1092 471.032 9.69018 456.164 12.4631 441.821C15.2359 427.479 22.0761 414.305 32.1184 403.967C42.1607 393.63 54.954 386.592 68.88 383.744C82.8061 380.896 97.2393 382.366 110.354 387.968C123.469 393.571 134.676 403.053 142.558 415.217C150.44 427.381 154.643 441.679 154.634 456.303C154.632 475.91 147.069 494.713 133.609 508.576C120.148 522.439 101.893 530.227 82.8576 530.227V530.193Z" fill="black"/>
<path id="Vector_13" opacity="0.1" d="M1610.13 147.029C1607.78 147.302 1605.49 148.052 1603.13 148.206C1600.77 148.359 1598.16 147.771 1596.68 145.877C1595.98 144.78 1595.36 143.64 1594.8 142.465C1594.15 141.432 1593.27 140.577 1592.23 139.974C1591.57 141.305 1591.19 142.767 1591.12 144.26C1591.05 145.753 1591.3 147.245 1591.83 148.634C1592.37 150.023 1593.19 151.279 1594.23 152.316C1595.28 153.354 1596.53 154.149 1597.89 154.65C1599.26 155.15 1600.72 155.344 1602.16 155.218C1603.61 155.092 1605.01 154.65 1606.28 153.92C1607.55 153.191 1608.65 152.191 1609.51 150.988C1610.37 149.785 1610.97 148.406 1611.28 146.943C1610.9 146.96 1610.51 146.986 1610.13 147.029Z" fill="black"/>
<path id="Vector_14" opacity="0.1" d="M1613.03 177.96C1611.27 178.043 1609.53 177.657 1607.96 176.839C1606.39 176.021 1605.05 174.799 1604.07 173.292C1603.1 171.785 1602.52 170.043 1602.39 168.237C1602.26 166.43 1602.58 164.619 1603.33 162.98C1604.14 163.539 1604.84 164.255 1605.39 165.087C1605.99 166.285 1606.67 167.445 1607.41 168.559C1608.99 170.487 1611.71 171.118 1614.17 170.999C1616.63 170.879 1619 170.146 1621.45 169.933C1621.79 169.933 1622.14 169.873 1622.48 169.864C1621.98 172.089 1620.78 174.083 1619.07 175.544C1617.37 177.005 1615.25 177.853 1613.03 177.96V177.96Z" fill="black"/>
<path id="Vector_15" d="M1643.38 694.907C1644.39 694.907 1645.2 694.067 1645.2 693.03C1645.2 691.994 1644.39 691.154 1643.38 691.154C1642.38 691.154 1641.57 691.994 1641.57 693.03C1641.57 694.067 1642.38 694.907 1643.38 694.907Z" fill="#E8E8F0"/>
<path id="Vector_16" opacity="0.1" d="M951.168 251.747L945.478 255.466L948.932 248.992C947.955 248.187 946.745 247.742 945.495 247.729H945.395C945.001 247.736 944.608 247.705 944.219 247.635L942.29 248.898L943.118 247.345C941.75 246.855 940.568 245.933 939.739 244.709L936.286 246.961L938.472 242.884C937.554 241.663 936.383 240.667 935.046 239.969C933.708 239.271 932.236 238.889 930.737 238.849C927.143 238.849 923.946 241.05 921.884 244.479C921.273 245.504 920.409 246.345 919.381 246.916C918.353 247.487 917.196 247.767 916.029 247.729H915.838C911.871 247.729 908.658 252.353 908.658 258.068C908.658 263.783 911.871 268.407 915.838 268.407C916.705 268.4 917.557 268.177 918.323 267.758C919.671 267.084 921.146 266.72 922.644 266.691C924.143 266.661 925.629 266.967 927.002 267.588C928.17 268.136 929.437 268.427 930.72 268.441C931.984 268.439 933.233 268.165 934.389 267.639C935.753 267.031 937.228 266.732 938.713 266.761C940.199 266.79 941.662 267.148 943.002 267.81C943.769 268.223 944.621 268.44 945.486 268.441C949.445 268.441 952.658 263.809 952.658 258.102C952.692 255.888 952.179 253.701 951.168 251.747V251.747Z" fill="#3F3D56"/>
</g>
<g id="stars">
<path id="Vector_17" opacity="0.1" d="M1282.81 259.638C1279.86 259.062 1276.8 259.407 1274.03 260.627C1272.37 261.389 1270.58 261.783 1268.76 261.783C1266.94 261.783 1265.14 261.389 1263.48 260.627C1261.52 259.739 1259.39 259.301 1257.25 259.344C1255.1 259.386 1252.99 259.909 1251.06 260.874C1249.96 261.476 1248.74 261.792 1247.49 261.796C1242.46 261.796 1238.27 256.575 1237.41 249.691C1238.4 248.93 1239.24 247.984 1239.89 246.902C1242.84 242.005 1247.4 238.858 1252.54 238.858C1257.67 238.858 1262.18 241.963 1265.12 246.808C1266 248.272 1267.23 249.477 1268.7 250.305C1270.16 251.133 1271.81 251.556 1273.48 251.534H1273.61C1277.66 251.491 1281.13 254.801 1282.81 259.638Z" fill="#F9A826"/>
<path id="Vector_18" opacity="0.1" d="M1298.14 238.013L1290.01 243.319L1294.98 234.072C1293.58 232.925 1291.85 232.291 1290.06 232.272H1289.93C1289.37 232.28 1288.82 232.237 1288.27 232.144L1285.47 233.944L1286.66 231.726C1284.7 231.029 1283.01 229.708 1281.83 227.956L1276.86 231.18L1279.97 225.346C1277.09 221.78 1273.2 219.596 1268.92 219.596C1263.79 219.596 1259.23 222.735 1256.27 227.632C1255.4 229.096 1254.17 230.296 1252.7 231.111C1251.23 231.926 1249.58 232.327 1247.91 232.272H1247.64C1241.98 232.272 1237.39 238.883 1237.39 247.038C1237.39 255.193 1241.98 261.813 1247.64 261.813C1248.89 261.804 1250.11 261.488 1251.21 260.891C1253.14 259.923 1255.25 259.399 1257.39 259.355C1259.54 259.311 1261.67 259.748 1263.63 260.636C1265.29 261.403 1267.09 261.8 1268.91 261.8C1270.73 261.8 1272.52 261.403 1274.18 260.636C1276.13 259.768 1278.24 259.34 1280.36 259.383C1282.49 259.426 1284.58 259.937 1286.49 260.883C1287.58 261.47 1288.79 261.78 1290.02 261.787C1295.68 261.787 1300.27 255.168 1300.27 247.013C1300.31 243.876 1299.57 240.782 1298.14 238.013V238.013Z" fill="#3F3D56"/>
<path id="Vector_19" opacity="0.1" d="M319.202 216.508C321.271 216.106 323.41 216.346 325.347 217.199C326.509 217.734 327.768 218.01 329.04 218.01C330.313 218.01 331.572 217.734 332.734 217.199C334.108 216.579 335.596 216.272 337.096 216.302C338.596 216.331 340.072 216.696 341.421 217.37C342.187 217.79 343.039 218.012 343.906 218.018C347.426 218.018 350.357 214.359 350.962 209.539C350.26 209.01 349.664 208.347 349.206 207.585C347.136 204.173 343.939 201.964 340.353 201.964C336.767 201.964 333.604 204.131 331.533 207.526C330.918 208.55 330.057 209.392 329.032 209.972C328.008 210.552 326.855 210.85 325.686 210.836H325.595C322.804 210.853 320.37 213.164 319.202 216.508Z" fill="#F9A826"/>
<path id="Vector_20" opacity="0.5" d="M308.469 201.409L314.167 205.129L310.705 198.663C311.684 197.855 312.896 197.408 314.15 197.392H314.241C314.638 197.398 315.034 197.369 315.425 197.306L317.355 198.56L316.527 197.016C317.892 196.525 319.071 195.603 319.898 194.381L323.351 196.633L321.198 192.547C322.116 191.326 323.287 190.332 324.625 189.636C325.963 188.939 327.434 188.558 328.933 188.52C332.519 188.52 335.724 190.721 337.786 194.15C338.396 195.174 339.258 196.014 340.285 196.585C341.312 197.155 342.467 197.437 343.633 197.4H343.831C347.79 197.4 351.003 202.032 351.003 207.739C351.003 213.446 347.79 218.078 343.831 218.078C342.965 218.074 342.113 217.854 341.347 217.438C339.998 216.76 338.523 216.393 337.022 216.362C335.522 216.331 334.033 216.637 332.659 217.259C331.496 217.812 330.231 218.103 328.949 218.112C327.683 218.111 326.431 217.838 325.272 217.31C323.91 216.702 322.437 216.403 320.952 216.432C319.468 216.462 318.006 216.819 316.668 217.481C315.901 217.894 315.049 218.111 314.183 218.112C310.216 218.112 307.003 213.488 307.003 207.773C306.964 205.559 307.469 203.37 308.469 201.409V201.409Z" fill="#E5E5E5"/>
<path id="Vector_21" d="M951.397 73.9931C951.317 72.2335 950.809 70.523 949.918 69.0189C949.028 67.5148 947.785 66.2655 946.304 65.386L944.018 70.035L944.092 64.405C942.02 63.7763 939.806 63.8424 937.772 64.5937C935.738 65.3449 933.988 66.7425 932.776 68.5846C931.563 70.4268 930.95 72.6183 931.025 74.8428C931.1 77.0673 931.859 79.2096 933.193 80.9607C934.527 82.7118 936.367 83.9809 938.446 84.585C940.526 85.1891 942.739 85.0968 944.764 84.3215C946.79 83.5462 948.524 82.1279 949.716 80.2715C950.908 78.4151 951.497 76.2165 951.397 73.9931V73.9931Z" fill="#F9A826"/>
<path id="Vector_22" d="M1829.34 722.878C1828.31 724.931 1826.66 726.579 1824.63 727.566C1822.61 728.553 1820.32 728.825 1818.13 728.34C1815.94 727.854 1813.96 726.638 1812.51 724.88C1811.06 723.121 1810.21 720.919 1810.09 718.613C1810.02 717.159 1810.24 715.704 1810.75 714.347C1811.51 712.368 1812.82 710.67 1814.53 709.477C1816.23 708.284 1818.25 707.651 1820.32 707.663C1822.38 707.675 1824.39 708.331 1826.08 709.544C1827.78 710.757 1829.07 712.471 1829.8 714.458L1823.43 719.798L1830.44 718.092C1830.45 719.755 1830.07 721.396 1829.34 722.878V722.878Z" fill="#F9A826"/>
<path id="Vector_23" d="M1824.3 702.49C1821.8 702.612 1819.34 701.78 1817.4 700.154C1815.45 698.529 1814.16 696.222 1813.76 693.675C1813.36 691.128 1813.89 688.519 1815.23 686.345C1816.58 684.172 1818.66 682.586 1821.07 681.89L1821.02 686.214L1823.33 681.506C1826.03 681.376 1828.67 682.356 1830.67 684.232C1832.67 686.108 1833.86 688.725 1833.99 691.508C1834.12 694.29 1833.16 697.011 1831.34 699.07C1829.52 701.13 1826.98 702.36 1824.28 702.49H1824.3Z" fill="#F9A826"/>
<path id="Vector_24" d="M1817.11 435.562C1815.53 435.646 1813.95 435.35 1812.5 434.697C1811.05 434.044 1809.76 433.052 1808.75 431.8C1807.74 430.548 1807.02 429.07 1806.66 427.483C1806.29 425.896 1806.29 424.244 1806.66 422.658C1807.02 421.071 1807.74 419.594 1808.76 418.343C1809.77 417.091 1811.05 416.101 1812.5 415.449C1813.96 414.798 1815.53 414.503 1817.11 414.588C1818.7 414.674 1820.23 415.137 1821.61 415.942L1819.81 421.06L1823.48 417.324C1824.97 418.725 1826.01 420.547 1826.49 422.561C1826.97 424.575 1826.86 426.69 1826.18 428.64C1825.49 430.589 1824.26 432.286 1822.64 433.517C1821.02 434.747 1819.08 435.455 1817.07 435.553L1817.11 435.562Z" fill="#F9A826"/>
<path id="Vector_25" opacity="0.1" d="M1817.11 435.562C1815.35 435.647 1813.6 435.263 1812.03 434.446C1810.46 433.629 1809.12 432.406 1808.14 430.898C1807.17 429.39 1806.59 427.648 1806.46 425.84C1806.33 424.032 1806.66 422.221 1807.41 420.582C1808.22 421.145 1808.91 421.863 1809.45 422.698C1810.06 423.894 1810.74 425.053 1811.47 426.17C1813.06 428.089 1815.78 428.729 1818.24 428.601C1820.7 428.473 1823.08 427.748 1825.53 427.534C1825.87 427.534 1826.21 427.483 1826.56 427.475C1826.05 429.698 1824.85 431.69 1823.15 433.149C1821.44 434.608 1819.32 435.455 1817.11 435.562V435.562Z" fill="black"/>
<path id="Vector_26" opacity="0.1" d="M1824.3 702.49C1822.56 702.574 1820.83 702.198 1819.27 701.397C1817.72 700.596 1816.38 699.397 1815.4 697.915C1814.42 696.432 1813.83 694.716 1813.67 692.929C1813.52 691.142 1813.81 689.344 1814.52 687.707C1815.36 688.277 1816.1 689 1816.68 689.84C1817.35 691.064 1818.09 692.246 1818.9 693.38C1820.61 695.35 1823.51 696.05 1826.11 695.939C1828.71 695.828 1831.08 695.248 1833.56 695.086C1832.94 697.15 1831.72 698.968 1830.07 700.293C1828.41 701.618 1826.4 702.385 1824.3 702.49Z" fill="black"/>
<path id="Vector_27" opacity="0.1" d="M1829.34 722.878C1828.31 724.931 1826.66 726.579 1824.63 727.566C1822.61 728.553 1820.32 728.825 1818.13 728.34C1815.94 727.854 1813.96 726.638 1812.51 724.879C1811.06 723.121 1810.21 720.919 1810.09 718.613C1810.02 717.158 1810.24 715.704 1810.75 714.347C1811.59 714.915 1812.35 715.608 1812.99 716.403C1813.96 717.615 1814.6 718.962 1815.72 720.131C1817.8 722.238 1821.17 723.108 1824.16 723.185C1825.89 723.19 1827.62 723.088 1829.34 722.878V722.878Z" fill="black"/>
<path id="Vector_28" d="M567.146 253.13C567.066 251.37 566.557 249.66 565.667 248.156C564.777 246.652 563.534 245.402 562.052 244.523L559.767 249.172L559.841 243.542C557.768 242.913 555.555 242.979 553.521 243.73C551.487 244.482 549.737 245.879 548.524 247.722C547.311 249.564 546.698 251.755 546.773 253.98C546.848 256.204 547.608 258.346 548.942 260.098C550.276 261.849 552.115 263.118 554.195 263.722C556.275 264.326 558.487 264.234 560.513 263.458C562.538 262.683 564.273 261.265 565.465 259.408C566.657 257.552 567.246 255.353 567.146 253.13Z" fill="#F9A826"/>
<path id="Vector_29" d="M379.676 178.144C378.651 180.197 376.997 181.845 374.97 182.832C372.944 183.82 370.658 184.091 368.467 183.606C366.275 183.12 364.3 181.904 362.847 180.146C361.394 178.387 360.545 176.185 360.43 173.879C360.353 172.425 360.579 170.971 361.092 169.614C361.843 167.634 363.159 165.936 364.865 164.743C366.572 163.55 368.59 162.917 370.653 162.929C372.716 162.941 374.727 163.597 376.42 164.81C378.114 166.023 379.411 167.737 380.14 169.724L373.771 175.064L380.778 173.358C380.786 175.021 380.408 176.662 379.676 178.144V178.144Z" fill="#F9A826"/>
<path id="Vector_30" d="M391.794 647.122C389.292 647.243 386.834 646.412 384.889 644.786C382.944 643.16 381.649 640.854 381.25 638.307C380.85 635.76 381.375 633.151 382.724 630.977C384.073 628.803 386.152 627.217 388.564 626.521L388.506 630.846L390.816 626.137C392.154 626.073 393.491 626.281 394.751 626.748C396.011 627.216 397.169 627.935 398.159 628.864C399.149 629.792 399.952 630.913 400.521 632.161C401.091 633.41 401.416 634.761 401.479 636.139C401.541 637.517 401.34 638.894 400.886 640.192C400.432 641.489 399.734 642.682 398.832 643.702C397.93 644.722 396.843 645.549 395.631 646.136C394.419 646.722 393.106 647.058 391.769 647.122H391.794Z" fill="#F9A826"/>
<path id="Vector_31" d="M170.721 359.289C169.14 359.373 167.562 359.077 166.112 358.424C164.662 357.771 163.379 356.779 162.365 355.527C161.352 354.275 160.635 352.797 160.272 351.21C159.909 349.624 159.909 347.971 160.274 346.385C160.638 344.798 161.356 343.321 162.371 342.07C163.385 340.819 164.669 339.828 166.12 339.176C167.571 338.525 169.149 338.23 170.729 338.316C172.31 338.401 173.849 338.864 175.226 339.669L173.429 344.787L177.098 341.051C178.581 342.452 179.629 344.275 180.109 346.289C180.589 348.302 180.479 350.417 179.793 352.367C179.108 354.317 177.877 356.014 176.257 357.244C174.636 358.474 172.699 359.183 170.688 359.28L170.721 359.289Z" fill="#F9A826"/>
<path id="Vector_32" opacity="0.1" d="M565.771 255.928C563.419 256.192 561.133 256.943 558.765 257.097C556.396 257.25 553.796 256.661 552.322 254.776C551.628 253.678 550.998 252.538 550.433 251.364C549.79 250.329 548.908 249.473 547.866 248.873C547.207 250.204 546.83 251.665 546.763 253.157C546.695 254.65 546.937 256.14 547.473 257.528C548.009 258.917 548.827 260.171 549.871 261.208C550.916 262.245 552.163 263.041 553.53 263.541C554.897 264.042 556.352 264.237 557.797 264.112C559.243 263.987 560.646 263.546 561.913 262.818C563.18 262.09 564.281 261.092 565.143 259.891C566.006 258.689 566.609 257.312 566.914 255.851C566.541 255.86 566.152 255.885 565.771 255.928Z" fill="black"/>
<path id="Vector_33" opacity="0.1" d="M170.721 359.289C168.963 359.375 167.214 358.99 165.643 358.173C164.072 357.356 162.733 356.134 161.757 354.626C160.781 353.118 160.2 351.375 160.071 349.567C159.943 347.759 160.27 345.948 161.023 344.31C161.831 344.872 162.526 345.59 163.069 346.425C163.678 347.621 164.352 348.78 165.089 349.897C166.679 351.816 169.396 352.456 171.855 352.328C174.315 352.2 176.692 351.475 179.143 351.262C179.483 351.262 179.822 351.211 180.17 351.202C179.663 353.425 178.466 355.417 176.761 356.876C175.056 358.335 172.935 359.182 170.721 359.289Z" fill="black"/>
<path id="Vector_34" opacity="0.1" d="M391.793 647.122C390.054 647.206 388.322 646.829 386.764 646.028C385.206 645.227 383.873 644.029 382.892 642.546C381.911 641.064 381.315 639.347 381.162 637.56C381.008 635.774 381.301 633.976 382.013 632.339C382.853 632.909 383.586 633.631 384.174 634.471C384.842 635.696 385.581 636.878 386.386 638.012C388.1 639.982 390.998 640.682 393.599 640.571C396.199 640.46 398.568 639.88 401.052 639.718C400.434 641.782 399.214 643.6 397.557 644.925C395.901 646.249 393.888 647.017 391.793 647.122Z" fill="black"/>
<path id="Vector_35" opacity="0.1" d="M379.676 178.144C378.651 180.197 376.997 181.845 374.97 182.832C372.944 183.82 370.658 184.091 368.467 183.606C366.275 183.12 364.3 181.904 362.847 180.146C361.394 178.387 360.545 176.185 360.43 173.879C360.353 172.425 360.579 170.971 361.092 169.614C361.932 170.181 362.685 170.874 363.328 171.669C364.297 172.881 364.935 174.229 366.061 175.397C368.14 177.504 371.51 178.374 374.5 178.451C376.23 178.456 377.958 178.354 379.676 178.144V178.144Z" fill="black"/>
<path id="Vector_36" d="M1180.31 445.915C1180.38 444.156 1180.89 442.446 1181.78 440.942C1182.67 439.438 1183.91 438.188 1185.39 437.308L1187.68 441.957L1187.61 436.327C1188.7 436.001 1189.83 435.86 1190.96 435.909C1192.98 436.006 1194.92 436.715 1196.54 437.948C1198.16 439.181 1199.4 440.881 1200.08 442.835C1200.76 444.788 1200.87 446.907 1200.39 448.922C1199.9 450.938 1198.85 452.761 1197.36 454.16C1195.87 455.558 1194.01 456.471 1192.01 456.781C1190.02 457.092 1187.98 456.787 1186.16 455.904C1184.33 455.022 1182.8 453.602 1181.76 451.824C1180.72 450.046 1180.21 447.99 1180.31 445.915V445.915Z" fill="#F9A826"/>
<path id="Vector_37" d="M1640.39 591.204C1641.46 593.347 1643.21 595.046 1645.35 596.017C1647.5 596.987 1649.9 597.17 1652.15 596.535C1654.41 595.899 1656.38 594.484 1657.75 592.526C1659.11 590.568 1659.78 588.187 1659.64 585.782C1659.5 583.377 1658.56 581.094 1656.98 579.317C1655.4 577.539 1653.28 576.375 1650.97 576.02C1648.65 575.664 1646.29 576.139 1644.28 577.365C1642.26 578.59 1640.72 580.492 1639.91 582.75L1646.27 588.09L1639.27 586.384C1639.26 588.06 1639.65 589.714 1640.39 591.204V591.204Z" fill="#F9A826"/>
<path id="Vector_38" d="M1317.48 93.4191C1319.98 93.543 1322.44 92.7133 1324.39 91.0881C1326.33 89.463 1327.63 87.1564 1328.03 84.6086C1328.43 82.0609 1327.91 79.4504 1326.56 77.2756C1325.21 75.1009 1323.13 73.5141 1320.71 72.8183L1320.76 77.1432L1318.45 72.4345C1315.75 72.2976 1313.11 73.2713 1311.11 75.1414C1309.1 77.0115 1307.9 79.6248 1307.77 82.4064C1307.71 83.6179 1307.86 84.8305 1308.21 85.9892C1308.82 88.0613 1310.04 89.8878 1311.7 91.2181C1313.36 92.5484 1315.38 93.3172 1317.48 93.4191V93.4191Z" fill="#F9A826"/>
<path id="Vector_39" d="M1292.73 76.4352C1294.31 76.5181 1295.89 76.2209 1297.34 75.5671C1298.79 74.9134 1300.07 73.921 1301.08 72.6686C1302.1 71.4161 1302.81 69.938 1303.17 68.3513C1303.54 66.7646 1303.53 65.1128 1303.17 63.5268C1302.81 61.9407 1302.09 60.4639 1301.07 59.2133C1300.06 57.9627 1298.77 56.9726 1297.32 56.3215C1295.87 55.6703 1294.29 55.3759 1292.71 55.4617C1291.13 55.5474 1289.59 56.0109 1288.22 56.8154L1290.02 61.9336L1286.31 58.2741C1285.32 59.1976 1284.52 60.3137 1283.95 61.5582C1283.38 62.8027 1283.06 64.1509 1283 65.5249C1282.95 66.4965 1283.04 67.4704 1283.26 68.4167C1283.78 70.6317 1284.98 72.6122 1286.69 74.0588C1288.4 75.5055 1290.52 76.3396 1292.73 76.4352Z" fill="#F9A826"/>
<path id="Vector_40" opacity="0.1" d="M1181.68 448.713C1184.03 448.978 1186.32 449.728 1188.68 449.882C1191.04 450.035 1193.65 449.447 1195.13 447.562C1195.82 446.463 1196.45 445.324 1197.01 444.149C1197.66 443.114 1198.54 442.258 1199.59 441.659C1200.25 442.99 1200.62 444.451 1200.69 445.944C1200.76 447.438 1200.52 448.929 1199.98 450.319C1199.45 451.708 1198.63 452.963 1197.58 454.001C1196.54 455.038 1195.29 455.834 1193.92 456.334C1192.55 456.835 1191.1 457.028 1189.65 456.903C1188.2 456.777 1186.8 456.334 1185.53 455.605C1184.27 454.875 1183.17 453.875 1182.3 452.672C1181.44 451.469 1180.84 450.09 1180.54 448.628C1180.91 448.636 1181.29 448.67 1181.68 448.713Z" fill="black"/>
<path id="Vector_41" opacity="0.1" d="M1292.73 76.4352C1294.49 76.5184 1296.24 76.1324 1297.81 75.3146C1299.38 74.4967 1300.71 73.2749 1301.69 71.7676C1302.66 70.2603 1303.25 68.5188 1303.38 66.712C1303.51 64.9053 1303.18 63.0947 1302.43 61.4559C1301.62 62.0181 1300.92 62.7365 1300.38 63.5715C1299.77 64.7673 1299.09 65.9264 1298.35 67.0433C1296.77 68.9626 1294.06 69.6024 1291.6 69.4744C1289.14 69.3465 1286.76 68.6214 1284.31 68.4081C1283.97 68.4081 1283.62 68.357 1283.28 68.3484C1283.79 70.572 1284.98 72.5648 1286.69 74.0242C1288.4 75.4837 1290.52 76.3302 1292.73 76.4352V76.4352Z" fill="black"/>
<path id="Vector_42" opacity="0.1" d="M1317.48 93.4191C1319.22 93.5054 1320.95 93.1305 1322.51 92.3301C1324.07 91.5298 1325.4 90.3307 1326.38 88.8476C1327.37 87.3645 1327.96 85.6469 1328.11 83.8591C1328.27 82.0712 1327.97 80.2729 1327.26 78.636C1326.42 79.204 1325.69 79.927 1325.1 80.7686C1324.44 81.993 1323.7 83.1752 1322.89 84.3087C1321.17 86.2792 1318.28 86.9787 1315.67 86.8678C1313.06 86.7569 1310.7 86.1768 1308.22 86.0147C1308.83 88.0808 1310.05 89.9008 1311.71 91.2261C1313.37 92.5514 1315.38 93.3173 1317.48 93.4191V93.4191Z" fill="black"/>
<path id="Vector_43" opacity="0.1" d="M1640.39 591.204C1641.59 593.58 1643.62 595.396 1646.08 596.28C1648.53 597.164 1651.22 597.05 1653.59 595.961C1655.97 594.871 1657.85 592.889 1658.85 590.42C1659.85 587.95 1659.9 585.179 1658.99 582.673C1658.14 583.236 1657.39 583.93 1656.75 584.729C1655.78 585.94 1655.09 587.288 1654.02 588.457C1651.93 590.564 1648.57 591.434 1645.57 591.511C1643.84 591.512 1642.11 591.409 1640.39 591.204V591.204Z" fill="black"/>
</g>
</g>
</svg>
