<svg width="890" height="645" viewBox="0 0 890 645" fill="none" xmlns="http://www.w3.org/2000/svg">
<g id="undraw_product_photography_91i2 (1) 1" filter="url(#filter0_d)">
<g clip-path="url(#clip0)">
<path id="Vector" opacity="0.2" d="M230.919 371.46C230.919 371.46 232.769 408.456 153.844 454.085C153.844 454.085 153.75 454.286 731.6 454.085C731.6 454.085 665.624 407.223 661.307 354.812" fill="black"/>
<path id="Vector_2" d="M658.864 345.011V34.1303C662.585 33.1668 665.88 30.995 668.232 27.9559C670.585 24.9168 671.861 21.1825 671.862 17.3393V17.3393C671.862 15.0622 671.413 12.8075 670.542 10.7038C669.671 8.60015 668.393 6.68868 666.783 5.07858C665.173 3.46849 663.262 2.1913 661.158 1.31993C659.054 0.448557 656.8 7.10411e-05 654.523 7.6294e-05H238.38C236.103 7.23543e-05 233.849 0.448557 231.745 1.31993C229.641 2.19131 227.73 3.4685 226.12 5.0786C224.51 6.68869 223.232 8.60015 222.361 10.7038C221.49 12.8075 221.041 15.0622 221.041 17.3393V17.3393C221.041 21.9379 222.868 26.3482 226.12 29.6C229.371 32.8517 233.782 34.6785 238.38 34.6785H238.384L228.75 345.286L151.4 444.284C151.4 444.284 150.75 444.286 729.157 444.284C729.157 444.284 728.75 445.286 658.864 345.011Z" fill="#E6E6E6"/>
<path id="Vector_3" opacity="0.2" d="M462.101 409.357C532.465 409.357 589.507 404.969 589.507 399.557C589.507 394.144 532.465 389.756 462.101 389.756C391.737 389.756 334.695 394.144 334.695 399.557C334.695 404.969 391.737 409.357 462.101 409.357Z" fill="black"/>
<path id="Vector_4" opacity="0.2" d="M238.38 34.679L658.864 46.925L659.046 33.925L238.38 34.679Z" fill="black"/>
<path id="Vector_5" d="M462.922 76.5182H442.705C441.888 76.5182 441.226 77.1805 441.226 77.9974V79.7448C441.226 80.5617 441.888 81.224 442.705 81.224H462.922C463.738 81.224 464.401 80.5617 464.401 79.7448V77.9974C464.401 77.1805 463.738 76.5182 462.922 76.5182Z" fill="#E6E8EC"/>
<path id="Vector_6" d="M470.574 81.5403C472.048 81.5403 473.243 80.3452 473.243 78.8711C473.243 77.397 472.048 76.2019 470.574 76.2019C469.1 76.2019 467.905 77.397 467.905 78.8711C467.905 80.3452 469.1 81.5403 470.574 81.5403Z" fill="#E6E8EC"/>
<path id="Vector_7" d="M517.998 270.684H396.954V286.397H517.998V270.684Z" fill="#E6E6E6"/>
<path id="Vector_8" d="M517.998 298.617H396.954V314.33H517.998V298.617Z" fill="#E6E6E6"/>
<path id="Vector_9" d="M517.998 326.551H396.954V342.263H517.998V326.551Z" fill="#E6E6E6"/>
<path id="Vector_10" d="M517.755 157.788H396.711V238.096H517.755V157.788Z" fill="#E6E6E6"/>
<path id="Vector_11" d="M231.134 46.1869L169.06 46.5725C169.06 46.5725 66.8889 100.935 138.602 213.517C138.602 213.517 167.904 206.577 200.29 230.481C200.29 230.481 219.182 50.428 231.134 46.1869Z" fill="#F9A826"/>
<path id="Vector_12" opacity="0.2" d="M212.669 46.7504C201.548 93.204 188.977 213.017 188.977 213.017C160.042 191.66 133.588 194.922 128.274 195.86C131.408 202.066 134.855 208.109 138.602 213.965C138.602 213.965 167.904 207.025 200.29 230.93C200.29 230.93 219.182 50.8768 231.134 46.6358L212.669 46.7504Z" fill="black"/>
<path id="Vector_13" d="M138.216 104.405L132.818 130.623L64.984 118.293L64.961 118.285L63.419 87.441H76.528L138.216 104.405Z" fill="#3F3D56"/>
<path id="Vector_14" opacity="0.2" d="M75.433 87.441L64.984 118.293L64.961 118.285L63.419 87.441H75.433Z" fill="black"/>
<path id="Vector_15" d="M135.903 133.707C140.161 133.707 143.614 125.767 143.614 115.972C143.614 106.177 140.161 98.2365 135.903 98.2365C131.644 98.2365 128.192 106.177 128.192 115.972C128.192 125.767 131.644 133.707 135.903 133.707Z" fill="#3F3D56"/>
<path id="Vector_16" d="M95.8053 490.772C95.4958 490.772 95.1893 490.711 94.9033 490.593C94.6173 490.474 94.3575 490.3 94.1386 490.082C93.9197 489.863 93.7461 489.603 93.6277 489.317C93.5092 489.031 93.4483 488.724 93.4483 488.415V115.972C93.4483 115.347 93.6966 114.747 94.1386 114.305C94.5807 113.863 95.1802 113.615 95.8053 113.615C96.4304 113.615 97.0299 113.863 97.4719 114.305C97.9139 114.747 98.1622 115.347 98.1622 115.972V488.415C98.1622 488.724 98.1013 489.031 97.9829 489.317C97.8644 489.603 97.6908 489.863 97.472 490.082C97.2531 490.3 96.9933 490.474 96.7073 490.593C96.4213 490.711 96.1148 490.772 95.8053 490.772V490.772Z" fill="#3F3D56"/>
<path id="Vector_17" d="M128.189 556.316C127.643 556.316 127.114 556.125 126.692 555.777C126.271 555.43 125.983 554.947 125.879 554.411L93.4921 388.383C93.3876 387.846 93.4726 387.291 93.7325 386.81C93.9924 386.33 94.4111 385.954 94.9171 385.748C95.423 385.543 95.9848 385.519 96.5064 385.681C97.028 385.844 97.4769 386.182 97.7765 386.639L183.369 517.196C183.712 517.718 183.833 518.356 183.706 518.968C183.578 519.58 183.213 520.117 182.69 520.459C182.167 520.802 181.53 520.923 180.918 520.796C180.306 520.669 179.769 520.304 179.426 519.781L100.417 399.266L130.505 553.508C130.564 553.812 130.563 554.125 130.502 554.428C130.44 554.731 130.32 555.02 130.147 555.276C129.974 555.533 129.752 555.753 129.494 555.924C129.236 556.095 128.947 556.214 128.643 556.273C128.493 556.302 128.341 556.316 128.189 556.316V556.316Z" fill="#3F3D56"/>
<path id="Vector_18" d="M6.35486 527.014C5.93008 527.013 5.51333 526.898 5.14868 526.68C4.78403 526.462 4.48504 526.15 4.28332 525.776C4.0816 525.402 3.98464 524.981 4.00271 524.556C4.02078 524.132 4.1532 523.72 4.38597 523.365L93.8341 386.88C94.1772 386.359 94.7133 385.994 95.3246 385.868C95.9359 385.741 96.5725 385.862 97.0947 386.204C97.6169 386.546 97.9819 387.082 98.1097 387.693C98.2376 388.304 98.1177 388.941 97.7765 389.463L8.32835 525.948C8.11395 526.276 7.82119 526.545 7.47659 526.731C7.132 526.917 6.74645 527.014 6.35486 527.014V527.014Z" fill="#3F3D56"/>
<path id="Vector_19" d="M658.366 46.1869L720.44 46.5725C720.44 46.5725 822.611 100.935 750.899 213.517C750.899 213.517 721.597 206.577 689.21 230.481C689.21 230.481 670.318 50.428 658.366 46.1869Z" fill="#F9A826"/>
<path id="Vector_20" opacity="0.2" d="M676.831 46.7504C687.952 93.204 700.524 213.017 700.524 213.017C729.459 191.66 755.913 194.922 761.227 195.86C758.092 202.066 754.645 208.109 750.899 213.965C750.899 213.965 721.597 207.025 689.21 230.93C689.21 230.93 670.318 50.8768 658.366 46.6358L676.831 46.7504Z" fill="black"/>
<path id="Vector_21" d="M751.284 104.405L756.682 130.623L824.516 118.293L824.539 118.285L826.081 87.441H812.973L751.284 104.405Z" fill="#3F3D56"/>
<path id="Vector_22" opacity="0.2" d="M814.067 87.441L824.516 118.293L824.539 118.285L826.081 87.441H814.067Z" fill="black"/>
<path id="Vector_23" d="M753.598 133.707C757.856 133.707 761.309 125.767 761.309 115.972C761.309 106.177 757.856 98.2365 753.598 98.2365C749.339 98.2365 745.886 106.177 745.886 115.972C745.886 125.767 749.339 133.707 753.598 133.707Z" fill="#3F3D56"/>
<path id="Vector_24" d="M793.695 490.772C793.385 490.772 793.079 490.711 792.793 490.593C792.507 490.474 792.247 490.3 792.028 490.082C791.809 489.863 791.636 489.603 791.517 489.317C791.399 489.031 791.338 488.724 791.338 488.415V115.972C791.338 115.347 791.586 114.747 792.028 114.305C792.47 113.863 793.07 113.615 793.695 113.615C794.32 113.615 794.919 113.863 795.362 114.305C795.804 114.747 796.052 115.347 796.052 115.972V488.415C796.052 488.724 795.991 489.031 795.872 489.317C795.754 489.603 795.581 489.863 795.362 490.082C795.143 490.3 794.883 490.474 794.597 490.593C794.311 490.711 794.004 490.772 793.695 490.772V490.772Z" fill="#3F3D56"/>
<path id="Vector_25" d="M761.312 556.316C761.159 556.316 761.007 556.302 760.858 556.273C760.244 556.153 759.703 555.795 759.354 555.276C759.005 554.758 758.876 554.122 758.995 553.508L789.082 399.265L710.074 519.781C709.904 520.04 709.685 520.263 709.429 520.437C709.173 520.611 708.886 520.733 708.582 520.796C708.279 520.859 707.967 520.862 707.663 520.804C707.359 520.746 707.069 520.629 706.81 520.459C706.551 520.29 706.328 520.071 706.154 519.815C705.98 519.559 705.858 519.271 705.795 518.968C705.732 518.665 705.729 518.352 705.787 518.048C705.845 517.744 705.962 517.454 706.131 517.196L791.724 386.639C792.023 386.182 792.472 385.844 792.994 385.681C793.516 385.519 794.077 385.543 794.583 385.749C795.089 385.954 795.508 386.33 795.768 386.81C796.028 387.291 796.113 387.846 796.009 388.383L763.623 554.411C763.518 554.947 763.23 555.43 762.809 555.777C762.387 556.125 761.858 556.316 761.312 556.316V556.316Z" fill="#3F3D56"/>
<path id="Vector_26" d="M883.145 527.014C882.753 527.014 882.368 526.917 882.023 526.731C881.679 526.545 881.386 526.276 881.172 525.948L791.724 389.463C791.383 388.941 791.263 388.304 791.391 387.693C791.518 387.082 791.883 386.546 792.406 386.204C792.928 385.862 793.564 385.741 794.176 385.868C794.787 385.994 795.323 386.359 795.666 386.88L885.114 523.365C885.347 523.72 885.48 524.132 885.498 524.557C885.516 524.981 885.419 525.402 885.217 525.776C885.015 526.15 884.716 526.462 884.351 526.68C883.987 526.898 883.57 527.013 883.145 527.014V527.014Z" fill="#3F3D56"/>
<path id="Vector_27" d="M391.027 327.288L407.914 322.586C407.914 322.586 414.529 321.266 410.487 308.347C406.446 295.429 398.429 299.044 398.429 299.044L383.449 303.397L377.534 305.223L385.856 316.898L386.554 324.68L391.027 327.288Z" fill="#3F3D56"/>
<path id="Vector_28" d="M358.396 293.155L353.098 314.319L380.245 340.629L382.579 341.214L388.805 339.465L394.104 318.302L388.737 312.658L394.223 311.221L382.516 299.856L376.407 301.138L371.507 296.273L374.814 294.951L375.126 293.706L371.12 290.553L358.396 293.155Z" fill="#3F3D56"/>
<path id="Vector_29" d="M383.831 323.006L380.324 337.011L364.144 321.715L368.196 307.515L383.831 323.006Z" fill="#F9A826"/>
<path id="Vector_30" d="M358.396 293.155L357.653 296.123L384.648 322.384L386.982 322.968L393.014 321.336L393.346 321.329L394.104 318.302L388.737 312.658L394.223 311.221L382.516 299.856L376.407 301.138L371.507 296.273L374.814 294.951L375.126 293.706L371.12 290.553L358.396 293.155Z" stroke="#3F3D56" stroke-miterlimit="10"/>
<path id="Vector_31" d="M373.045 293.433C373.249 292.616 372.439 291.71 371.236 291.409C370.033 291.108 368.892 291.525 368.688 292.342C368.483 293.158 369.293 294.064 370.496 294.366C371.699 294.667 372.84 294.249 373.045 293.433Z" fill="#F9A826"/>
<path id="Vector_32" d="M390.195 316.083C390.399 315.266 389.589 314.36 388.386 314.059C387.183 313.758 386.042 314.175 385.837 314.992C385.633 315.808 386.443 316.714 387.646 317.016C388.849 317.317 389.99 316.899 390.195 316.083Z" fill="#F9A826"/>
<path id="Vector_33" d="M402.247 353.652L398.565 341.131C398.565 341.131 408.14 318.298 397.091 316.089C386.043 313.879 385.307 337.448 385.307 337.448L389.726 351.443L402.247 353.652Z" fill="#FFB6B6"/>
<path id="Vector_34" d="M333.873 329.306C350.031 329.306 363.13 316.207 363.13 300.049C363.13 283.89 350.031 270.791 333.873 270.791C317.714 270.791 304.615 283.89 304.615 300.049C304.615 316.207 317.714 329.306 333.873 329.306Z" fill="#FFB6B6"/>
<path id="Vector_35" d="M343.339 320.701C343.339 320.701 345.059 342.214 349.362 343.935C353.665 345.656 302.894 357.703 302.894 357.703L315.802 343.075C315.802 343.075 318.384 320.701 312.36 315.538L343.339 320.701Z" fill="#FFB6B6"/>
<path id="Vector_36" d="M384.57 347.023L396.355 345.55C396.355 345.55 410.349 352.916 410.349 362.491C410.349 372.066 418.451 387.533 418.451 387.533C418.451 387.533 424.344 408.156 411.086 409.629C397.828 411.102 386.043 387.533 386.043 387.533L384.57 347.023Z" fill="#F9A826"/>
<path id="Vector_37" d="M391.199 464.133C391.199 464.133 416.978 439.828 424.344 441.301C431.709 442.774 446.44 444.983 446.44 456.032C446.44 467.08 422.134 492.859 422.134 492.859C422.134 492.859 403.72 533.368 386.043 534.841C374.415 535.896 362.857 537.618 351.426 539.997C351.426 539.997 359.528 569.459 355.109 577.561C350.689 585.663 333.749 595.238 332.276 594.501C330.803 593.765 310.18 574.615 301.341 547.363C292.503 520.111 286.61 499.487 294.712 498.014C302.814 496.541 391.199 464.133 391.199 464.133Z" fill="#2F2E41"/>
<path id="Vector_38" d="M444.23 453.822C444.23 453.822 449.386 453.085 448.649 465.606C447.913 478.128 445.703 523.057 442.02 531.895C438.338 540.734 437.601 551.045 439.074 554.728C440.547 558.411 443.494 564.303 438.338 565.04C433.182 565.776 411.822 562.83 409.613 562.093C407.403 561.357 405.193 548.836 406.666 548.836C408.14 548.836 411.822 548.099 410.349 542.943C408.876 537.788 408.14 537.788 410.349 536.314C412.559 534.841 418.451 532.632 416.978 531.159C415.505 529.686 414.032 495.068 414.032 495.068L444.23 453.822Z" fill="#2F2E41"/>
<path id="Vector_39" d="M436.865 562.83C436.865 562.83 449.386 559.147 450.859 567.249C450.859 567.249 453.069 579.77 443.494 584.19C437.315 587.11 431.4 590.56 425.817 594.501C425.817 594.501 410.349 600.394 409.613 593.028C408.876 585.663 412.559 559.147 412.559 559.147L436.865 562.83Z" fill="#2F2E41"/>
<path id="Vector_40" d="M353.635 571.669L330.066 552.518C330.066 552.518 334.485 576.088 328.593 580.507L325.902 588.376L333.439 594.541C333.439 594.541 356.582 590.819 353.635 571.669Z" fill="#2F2E41"/>
<path id="Vector_41" d="M320.491 539.261C320.491 539.261 335.959 543.68 333.749 559.147C331.539 574.615 328.706 591.419 328.706 591.419C328.706 591.419 327.857 632.801 316.808 635.748C305.76 638.694 302.814 632.801 302.814 632.801C302.814 632.801 290.256 600.464 293.976 590.819C298.479 579.144 304.967 566.035 302.814 562.093C300.695 558.215 304.287 537.051 320.491 539.261Z" fill="#2F2E41"/>
<path id="Vector_42" d="M311.653 335.975C311.653 335.975 317.545 336.712 327.12 338.185C336.695 339.658 343.324 332.293 348.48 333.766C353.635 335.239 396.355 345.55 396.355 345.55L389.726 396.372C389.726 396.372 397.828 455.295 396.355 465.606C394.882 475.918 414.032 474.445 402.984 486.966C391.936 499.487 372.786 510.536 333.749 506.853C294.712 503.17 289.556 503.907 289.556 498.014C289.556 492.122 298.395 442.037 295.449 437.618C292.503 433.199 286.61 428.043 289.556 422.887C292.503 417.731 295.449 414.785 291.029 410.366C286.61 405.947 284.401 401.527 284.401 399.318C284.401 397.108 274.089 361.018 274.089 361.018C274.089 361.018 278.508 343.341 283.664 342.604C288.82 341.868 293.239 338.185 296.922 338.185C300.605 338.185 302.814 338.921 305.024 338.185L311.653 335.975Z" fill="#F9A826"/>
<path id="Vector_43" d="M382.284 289.787C381.905 288.084 380.05 282.393 376.279 281.004C373.52 279.988 368.386 282.135 365.829 281.779L365.499 280.842C365.28 278.998 364.821 277.191 364.132 275.466C362.781 272.017 360.748 268.877 358.154 266.233C355.56 263.589 352.459 261.496 349.037 260.079C340.615 256.559 327.294 253.648 315.737 262.873C299.862 275.544 302.659 294.505 303.813 299.766C304.005 300.643 304.17 301.526 304.307 302.415C305.019 307.049 307.069 307.602 307.069 307.602C307.069 307.602 307.025 307.468 306.953 307.225L321.291 308.621L329.043 307.298C329.173 308.056 329.223 308.504 329.223 308.504C351.845 305.046 365.009 293.131 367.147 291.065C369.026 292.31 372.526 294.345 375.92 294.791C380.891 295.445 382.663 291.489 382.284 289.787ZM323.997 301.179L305.781 300.516C305.523 295.544 306.807 289.73 314.129 289.433C321.189 289.147 325.042 294.886 327.084 300.142L323.997 301.179Z" fill="#2F2E41"/>
<path id="Vector_44" d="M328.757 258.663C330.512 258.363 331.842 257.582 331.729 256.919C331.615 256.255 330.101 255.959 328.347 256.259C326.593 256.558 325.262 257.339 325.376 258.003C325.489 258.667 327.003 258.962 328.757 258.663Z" fill="#2F2E41"/>
<g id="Frame">
<path id="Vector_45" d="M479.713 90.4253C484.15 90.4253 487.746 86.8395 487.746 82.4161C487.746 77.9928 484.15 74.407 479.713 74.407C475.276 74.407 471.68 77.9928 471.68 82.4161C471.68 86.8395 475.276 90.4253 479.713 90.4253Z" fill="#2F2E41"/>
<path id="Vector_46" d="M472.13 85.3291C471.292 84.2228 470.757 82.9189 470.576 81.5445C470.395 80.1702 470.575 78.7726 471.098 77.4884C471.621 76.2042 472.47 75.0773 473.561 74.2179C474.652 73.3585 475.947 72.796 477.321 72.5855C476.206 72.5549 475.097 72.7562 474.064 73.1767C473.032 73.5972 472.098 74.2275 471.323 75.0276C470.548 75.8276 469.949 76.7798 469.564 77.8235C469.178 78.8672 469.015 79.9795 469.085 81.0896C469.155 82.1996 469.455 83.2829 469.968 84.2706C470.481 85.2583 471.194 86.1287 472.063 86.8263C472.932 87.5238 473.937 88.0333 475.014 88.3222C476.092 88.611 477.218 88.673 478.32 88.5041C477.115 88.4731 475.933 88.1715 474.861 87.6218C473.789 87.0721 472.856 86.2884 472.13 85.3291Z" fill="#2F2E41"/>
<path id="Vector_47" d="M471.391 134.283C484.423 134.283 494.989 123.75 494.989 110.756C494.989 97.7627 484.423 87.2293 471.391 87.2293C458.358 87.2293 447.793 97.7627 447.793 110.756C447.793 123.75 458.358 134.283 471.391 134.283Z" fill="#2F2E41"/>
<path id="Vector_48" d="M449.402 102.186C451.956 96.6419 456.571 92.3039 462.272 90.0876C467.973 87.8712 474.315 87.9499 479.959 90.307C479.72 90.1883 479.484 90.0676 479.24 89.9559C476.423 88.6652 473.38 87.9404 470.282 87.8229C467.185 87.7053 464.094 88.1973 461.187 89.2709C458.281 90.3444 455.614 91.9784 453.341 94.0795C451.068 96.1805 449.232 98.7076 447.939 101.516C446.646 104.325 445.92 107.36 445.803 110.448C445.687 113.536 446.182 116.617 447.26 119.515C448.338 122.413 449.978 125.07 452.086 127.335C454.195 129.601 456.73 131.43 459.548 132.718C459.792 132.83 460.038 132.93 460.283 133.033C454.811 130.302 450.618 125.558 448.588 119.802C446.558 114.047 446.85 107.731 449.402 102.186Z" fill="#2F2E41"/>
<path id="Vector_49" d="M500.864 210.965L492.872 216.94L488.877 204.99L497.867 202.002L500.864 210.965Z" fill="#FFB8B8"/>
<path id="Vector_50" d="M496.368 229.388L512.35 312.045L533.327 373.788L499.365 380.759L466.403 257.272L465.403 375.78L422.452 376.775L432.441 306.07L437.435 226.401L496.368 229.388Z" fill="#2F2E41"/>
<path id="Vector_51" d="M445.426 373.788V389.722L444.427 398.684C444.427 398.684 442.43 406.651 454.416 404.66C466.402 402.668 460.409 393.705 460.409 393.705L456.414 385.738L454.416 372.792L445.426 373.788Z" fill="#2F2E41"/>
<path id="Vector_52" d="M520.482 372.655L523.364 388.328L525.966 396.964C525.966 396.964 529.372 404.441 517.222 404.637C505.072 404.832 509.346 394.939 509.346 394.939L511.835 386.385L511.459 373.291L520.482 372.655Z" fill="#2F2E41"/>
<path id="Vector_53" d="M471.397 132.79C479.671 132.79 486.38 126.102 486.38 117.852C486.38 109.602 479.671 102.914 471.397 102.914C463.122 102.914 456.414 109.602 456.414 117.852C456.414 126.102 463.122 132.79 471.397 132.79Z" fill="#FFB8B8"/>
<path id="Vector_54" d="M462.407 126.814C462.407 126.814 464.405 142.748 456.414 146.731C448.423 150.715 471.397 156.691 471.397 156.691L485.381 140.757C485.381 140.757 478.389 131.794 480.386 125.819L462.407 126.814Z" fill="#FFB8B8"/>
<path id="Vector_55" d="M483.383 137.769C483.383 137.769 481.386 147.728 469.399 147.728C457.413 147.728 460.409 142.748 460.409 142.748L444.427 150.715L446.425 196.525L432.441 230.384C432.441 230.384 440.432 228.392 450.421 233.372C460.409 238.351 479.388 234.367 479.388 234.367C479.388 234.367 487.378 233.372 492.373 235.363C497.368 237.355 498.366 231.38 498.366 231.38L492.373 202.5L501.363 170.632L499.365 142.748L483.383 137.769Z" fill="#F9A826"/>
<path id="Vector_56" d="M426.448 237.355L423.451 250.301C423.451 250.301 412.464 269.222 420.455 270.218C428.445 271.214 430.443 250.301 430.443 250.301L435.438 237.355H426.448Z" fill="#FFB8B8"/>
<path id="Vector_57" d="M491.374 145.736L496.288 141.726L499.365 142.748C499.365 142.748 504.36 141.752 509.353 149.719C514.348 157.686 536.323 184.574 533.327 187.562C530.33 190.549 506.357 209.471 506.357 209.471C506.357 209.471 507.356 212.458 506.357 213.455C505.358 214.45 499.365 216.442 499.365 215.446C499.365 214.45 492.582 201.76 492.582 201.76C492.582 201.76 497.368 195.529 498.366 196.525C499.634 197.603 500.968 198.601 502.362 199.512L510.353 191.546C510.353 191.546 509.353 187.562 512.35 188.558C515.347 189.554 513.349 182.583 513.349 182.583L495.37 165.653L491.374 145.736Z" fill="#F9A826"/>
<path id="Vector_58" d="M449.422 150.715L446.733 149.401C446.733 149.401 440.432 150.715 438.434 154.699C436.436 158.682 431.442 199.512 431.442 199.512L427.447 226.401C427.447 226.401 424.45 226.401 424.45 229.388C424.45 232.375 420.455 240.343 423.451 240.343C426.448 240.343 438.434 240.343 440.432 238.351C442.43 236.359 446.425 228.392 445.426 227.396C444.427 226.401 442.43 226.401 442.43 226.401L448.423 198.517L449.422 150.715Z" fill="#F9A826"/>
<path id="Vector_59" d="M457.566 102.233V118.865H461.429L466.346 113.612L465.687 118.865H482.765L481.712 113.612L483.819 118.865H486.54V102.233H457.566Z" fill="#2F2E41"/>
<path id="Vector_60" d="M488.558 114.188H487.214C487.214 104.724 480.18 97.0242 471.535 97.0242C462.889 97.0242 455.855 104.724 455.855 114.188H454.511C454.511 103.985 462.148 95.6841 471.535 95.6841C480.921 95.6841 488.558 103.985 488.558 114.188Z" fill="#F9A826"/>
<path id="Vector_61" d="M422.312 246.786L422.194 246.861L420.141 243.636C419.985 243.39 419.782 243.178 419.544 243.011C419.306 242.844 419.037 242.726 418.752 242.662C418.468 242.599 418.174 242.592 417.887 242.642C417.601 242.692 417.326 242.797 417.08 242.953L410.226 247.289C409.98 247.444 409.767 247.646 409.6 247.884C409.432 248.121 409.313 248.389 409.25 248.673C409.186 248.956 409.179 249.25 409.229 249.535C409.279 249.821 409.385 250.095 409.541 250.34L420.802 268.036C420.958 268.281 421.161 268.493 421.399 268.66C421.638 268.827 421.907 268.946 422.191 269.009C422.475 269.072 422.769 269.08 423.056 269.029C423.343 268.98 423.617 268.874 423.863 268.719L430.717 264.383C431.214 264.069 431.565 263.571 431.693 262.999C431.822 262.426 431.717 261.827 431.402 261.332L423.655 249.157L423.773 249.082L422.312 246.786Z" fill="#3F3D56"/>
<path id="Vector_62" d="M419.751 243.9L430.995 261.571C431.23 261.94 431.309 262.388 431.213 262.816C431.117 263.242 430.855 263.614 430.484 263.85L423.596 268.206C423.226 268.441 422.776 268.518 422.348 268.423C421.919 268.327 421.546 268.066 421.311 267.696L410.066 250.026C409.831 249.657 409.753 249.209 409.849 248.781C409.945 248.354 410.207 247.982 410.578 247.748L411.413 247.219C411.436 247.346 411.49 247.464 411.57 247.565C411.65 247.667 411.753 247.746 411.871 247.798C411.99 247.849 412.119 247.872 412.247 247.862C412.376 247.852 412.5 247.811 412.609 247.742L416.536 245.258C416.645 245.189 416.735 245.095 416.799 244.983C416.862 244.871 416.897 244.745 416.901 244.617C416.904 244.488 416.876 244.361 416.818 244.245C416.761 244.131 416.675 244.032 416.57 243.957L417.465 243.391C417.836 243.157 418.285 243.078 418.714 243.174C419.142 243.269 419.515 243.531 419.751 243.9Z" fill="#F9A826"/>
<g id="head">
<path id="Vector_63" d="M486.39 113.557H488.417C489.56 113.557 490.655 114.01 491.463 114.815C492.271 115.62 492.725 116.712 492.725 117.851V118.321C492.725 119.459 492.271 120.552 491.463 121.357C490.655 122.162 489.56 122.615 488.417 122.615H486.39V113.557Z" fill="#F9A826"/>
<path id="Vector_64" d="M485.89 112.061H487.724C488.21 112.061 488.677 112.254 489.021 112.597C489.364 112.94 489.558 113.405 489.558 113.89V122.282C489.558 122.767 489.364 123.232 489.021 123.575C488.677 123.918 488.21 124.111 487.724 124.111H485.89V112.061Z" fill="#F9A826"/>
<path id="Vector_65" d="M456.403 122.615H454.376C453.81 122.615 453.25 122.504 452.728 122.288C452.205 122.072 451.73 121.756 451.33 121.357C450.93 120.958 450.613 120.485 450.397 119.964C450.18 119.443 450.069 118.884 450.069 118.321V117.851C450.069 117.287 450.18 116.729 450.397 116.208C450.613 115.687 450.93 115.214 451.33 114.815C451.73 114.416 452.205 114.1 452.728 113.884C453.25 113.668 453.81 113.557 454.376 113.557H456.403V122.615Z" fill="#F9A826"/>
<path id="Vector_66" d="M456.903 124.111H455.07C454.583 124.111 454.117 123.918 453.773 123.575C453.429 123.232 453.236 122.767 453.236 122.282V113.89C453.236 113.649 453.283 113.412 453.376 113.19C453.468 112.968 453.603 112.767 453.773 112.597C453.943 112.427 454.145 112.292 454.368 112.201C454.59 112.109 454.829 112.061 455.07 112.061H456.903V124.111Z" fill="#F9A826"/>
</g>
</g>
</g>
</g>
<defs>
<filter id="filter0_d" x="0" y="0" width="889.5" height="644.573" filterUnits="userSpaceOnUse" color-interpolation-filters="sRGB">
<feFlood flood-opacity="0" result="BackgroundImageFix"/>
<feColorMatrix in="SourceAlpha" type="matrix" values="0 0 0 0 0 0 0 0 0 0 0 0 0 0 0 0 0 0 127 0"/>
<feOffset dy="4"/>
<feGaussianBlur stdDeviation="2"/>
<feColorMatrix type="matrix" values="0 0 0 0 0 0 0 0 0 0 0 0 0 0 0 0 0 0 0.25 0"/>
<feBlend mode="normal" in2="BackgroundImageFix" result="effect1_dropShadow"/>
<feBlend mode="normal" in="SourceGraphic" in2="effect1_dropShadow" result="shape"/>
</filter>
<clipPath id="clip0">
<rect x="4" width="881.5" height="636.573" fill="white"/>
</clipPath>
</defs>
</svg>
